<?xml version="1.0" encoding="UTF-8"?><svg id="Livello_1" xmlns="http://www.w3.org/2000/svg" viewBox="0 0 1080 1080"><defs><style>.cls-1{fill:#cf0;}.cls-1,.cls-2,.cls-3,.cls-4{stroke-width:0px;}.cls-2{fill:#000;}.cls-3{fill:#d1c5ff;}.cls-4{fill:#e7191f;}</style></defs><circle class="cls-3" cx="539.9709296732" cy="446.733815539" r="324"/><path class="cls-4" d="M581.6499671678,330.9551044423c-2.2226959275,1.0659845657-2.1934725492,1.0519693017-4.4161684767,2.1179538675-1.6721594674-1.7016593994-3.2130383092-3.2890672864-6.0215276511-1.8578135556-1.798203214.9164202506-3.9370768055,1.1787311324-5.9358500616,1.6845460605-2.8004496811.7087031983-4.8371316921-.216580409-6.6198282236-2.5658623358-4.2977978319-5.6637166816-6.6717184134-6.3251327601-13.0641894361-3.0471839018-3.7008541037,1.8977431452-6.6598341936,2.314130299-9.9639332994-.708989113-2.1369988081-1.9552596587-4.8618216355-3.2683548307-7.3232215147-4.8692231798.0965990064-1.0015910722.0502378385-2.0432102068.3174739055-2.9970217506.7064437861-2.521720278.5436236188-4.6576462786-1.9635972364-6.1519955062-1.8148220562-1.0816948495-3.5205571424-2.3489801279-5.3514260731-3.4003521316-2.071317839-1.1894688191-3.7495349187-2.5099342375-3.3935802906-5.2580036778.2595945591-2.0039732196.495110513-4.0200798975.5677315456-6.0371363413.1629609335-4.5262562277-3.4947129832-9.0891640885-7.8982547331-10.1485845718-3.484891392-.8384081569-4.1834903787-2.0498442503-3.2298772002-5.5600958093,1.7181062228-6.324532511.7102474912-8.6291328588-5.0614167108-11.5858859855-.7638915515-.3913323185-1.5105166941-.8238345051-2.1894277341-1.3489545731-1.237437046-.9571254366-3.3813782933-.9477913672-3.3222027865-3.3030194741.0416265455-1.6553509896-.2460732583-3.3171827131-.2422601396-4.975805838.0039719986-1.7152342417.5769248552-3.5280130592.1814726728-5.1193985698-.4577331206-1.8419103518-1.3556907921-3.8490158817-2.6918075749-5.1266258588-1.5653805431-1.4968906918-2.5486885207.555945311-3.3130281587,1.6020755447-2.378400996,3.2552980579-5.8755074586,3.0810489133-7.8583291684-.4867857143-.9528665803-1.7145829914-1.9438325713-3.4085960064-2.9450622068-5.0956041105-1.820836115-3.0679961517-4.1332112393-4.365688095-7.5476261121-3.4297288793-3.5623904202.9765222646-7.4383127532.5323276795-10.5022979658-1.5307321492-1.6659370461-1.121718141-3.6265626309-1.8245059243-5.4974183168-2.6136584672-.6840893778-.2885673847-1.6528598406-.6165592341-2.2198864752-.349514875-3.0625062619,1.4422333257-6.9254814611,2.0412405721-7.3369487419,6.5508306722-.074721238.8188121382-.7613209189,1.5818232512-1.1835920359,2.4060042326-.887662251-.4124796524-1.4814442683-.7618992225-2.1209678217-.9723960013-2.3238837751-.7649689232-4.6527177001-1.5201664319-7.006733787-2.1829786683-.4527359059-.1274752964-1.0549651947.0799933653-1.3360136383.4571293142-2.042201209,2.7404083113-4.0439308473,5.512649618-5.9895264013,8.3225693407-.9432090576,1.3622471683-1.6702136312,2.8777147749-2.6462143541,4.2119551318-.3779922678.5167337754-1.2156437026.9569556931-1.8557060969.9423927057-1.6903058003-.0384585976-3.3904450978-.5527426653-5.0577746052-.44237776-1.8200968704.1205130593-3.6002672107.7695553835-5.4112920362,1.11838724-3.0346863836.5845208999-2.4641485022,2.4165036569-2.0028882468,4.6649212201.5325814626,2.5960739923.7573965843,5.3471455374.5387301164,7.9830728664-.3007279593,3.625335257-4.0165167778,3.98658852-6.3616642014,5.4704383233-4.4271578829,2.8011542755-5.0653786207,4.1274174093-2.98757848,8.8911698215,1.7348418921,3.9774392485,1.3620777658,7.2382967596-1.1297793987,9.2243716726-1.3008613231,1.0368062366-2.8351172851,1.8196407711-3.992923106,2.9860934542-1.126141048,1.1345573064-2.8159722517,2.7481488612-2.6426024561,3.9105193173.3280235338,2.1988907781,1.5504140523,4.4120296402,2.8779672061,6.2806730194,2.1362838484,3.0069493455,2.4930646521,4.9044859967.2817576939,7.9019366194-1.6810292548,2.2786451039-3.8094962098,4.2301084503-5.4612756668,6.5267026457-1.3857602372,1.9267575969-3.2792138332,3.9569272887-1.0176346704,6.7649873287,1.4491748192,1.7993488653,2.7167237684,3.7232329617,3.775381017,5.7767686506.7724884099,1.4984382537,2.2772481233,3.1662038555,2.3426970779,4.8191135815.0857633941,2.1655817119-.4621658711,4.4048500037-1.0315915929,6.5352165511-.6817856186,2.5508041599.2979793363,4.3921585664,2.2417483556,5.6799344006,3.2129337935,2.1286192907,6.5814269409,4.0225661237,10.4080186328,6.3313434634.0713529832.8939600601.2942297696,2.5593180652.3204767364,4.2276940593.0764689174,4.8610587258,1.7333166446,6.5660635737,6.6466789342,6.8550915989,2.6000268846.1529683705,5.2142424883.3179775561,7.7745982974.7553142735.856612385.146318745,1.9250061494.8606559797,2.3465929594,1.6205628917.9567856127,1.7245985476,1.6012008514,3.6418038027,2.1988045184,5.5366541833,1.3401682215,4.2493600423,3.7386993065,5.724362373,8.0936780304,4.9934372465,1.9807880465-.332455296,3.9951950892-.5304988999,6.0015469188-.6113810006.7652929176-.030878791,1.93592035.1955656762,2.2627681723.7173918293,1.7699702478,2.8257270582,3.3334760076,5.780687575,4.9681123185,8.6911406987.0625033703,1.7422055313-.1679519895,3.5611632839.2632481804,5.2068249409.5105892542,1.9485551512,1.567208887,3.7564766553,2.4154700889,5.6136968747,1.01948254,2.2320997147.4614848009,4.8706841937-1.3348744142,6.5424220189-1.6269896767,1.5141182013-3.2482957137,3.0635758353-4.6565542538,4.7745760697-1.2393906725,1.5058175851-1.4812853883,3.1783869953.0046710704,4.878563061,1.8521111793,2.1191364522,3.6750996646,4.2883397506,5.2440708945,6.6155585906.4867128226.721966465.4981045146,2.2563437549.05149299,3.0278687733-1.7110257884,2.9559771026-3.6968185531,5.7529220778-5.5800384255,8.6092420123-.3886997847-.30503925-.8741415677-.9404688563-1.1498777117-.8597773654-1.4459028247.4232491073-3.1840811956.6733291923-4.1790350732,1.6421989119-2.2069247395,2.1491354774-4.1418226114,4.6195949405-5.9328670302,7.1368722431-1.1777651263,1.6553254565-3.2645939083,2.3942576431-5.2126512191,1.8177979538-1.9969310123-.5909221584-4.0061277339-1.3503912651-6.0477861814-1.4934711359-1.4279017269-.100070156-3.300603747.3116152888-4.3095072838,1.2271777952-2.4422071818,2.2162203876-4.6188783121,4.7648325346-6.6516042125,7.3748528121-.9717415177,1.2477318876-1.7908947366,1.8448806882-3.3822839266,1.4875825789-2.6599203701-.5971170322-5.3420203804-1.1544919169-8.0449654394-1.4709677562-1.0209784126-.1195123577-2.4710121158.1380332787-3.1276152632.8086939335-1.9822974059,2.0247528225-3.602316762,4.3985439954-5.5028545484,6.5110408721-.9852145371,1.0950534211-2.4977198345,2.9040676947-3.3684454834,2.6967477461-2.8965402717-.6897851735-4.2454786661.9765258807-6.1063282423,2.4983864591-1.9900348593,1.6275219557-2.0125799234,3.2366182955-1.2394701125,5.3076257679.5926221937,1.5874938934.8551395263,3.3326538769,1.6420877804,4.8060995608,1.7692711761,3.3125763091.7106541046,5.7028552315-1.939018509,7.8993475027-1.5485392689,1.2836618389-2.8540239985,2.8560022515-4.3505459735,4.208093016-1.2981127001,1.1728539964-1.4552926294,2.528407506-.7018680437,3.9362834114,1.1234559769,2.0994083357,2.4380604153,4.0955696851,3.6170608209,6.1665453892,1.519559567,2.6691728587,1.1041838396,4.3909831392-1.0128755354,6.5548811309-3.1472846004,3.2169219474-5.4053181503,7.0090090293-6.7616603501,11.4546654187,2.0899385684,1.2263835877,3.9505498247,2.6689504805,6.0550100201,3.4761513038,3.763119154,1.4434881737,4.8935340725,3.6260023912,3.4419115698,7.3090606556-1.4283783667,3.6240327565-2.2294987119,7.2944790044.9789228913,10.4643838625.9327523793.921598484,2.2244939936,1.4678862307,3.2789642985,2.2805194338,4.6285064367,3.5667545053,6.0236153431,3.5420705335,4.2063306477,10.5953963461-1.3882546146,5.3880919782-1.5994586803,6.4905874727,2.7812306207,9.0525909654.2613147979.1528274157.6497367102.4618808713.8606266302.6790607144,3.1565311304,3.2506766332,6.8939258115,4.858306905,11.5901854785,4.7071375583,1.4582001323-.0469217842,3.5493303004,1.1262181268,4.3256335982,2.3765867836,1.3925827152,2.2429692992,2.2070171997,4.9156684395,2.8881037466,7.5072948694.5665182188,2.1557017695,1.9344427666,2.7643824642,3.7348544118,2.4874899311,1.9140902457-.2943968684,3.7505994144-1.0617920073,5.6442100352-1.5285319221,2.094101223-.5162666999,4.2851033243-1.8962818032,6.2412808673.2627556381.9643059363,1.064269935,1.8783422581,2.1964605029,2.6598250421,3.3987954848,1.2418374237,1.910704613,6.0571548994,3.6510358145,7.6933958978,2.609956741,2.0698720314-1.3170503258,4.1889332937-2.5892120388,6.0977169493-4.1168862167,1.5142109856-1.2118246776,2.8143738897-1.2217919701,4.369866451-.2867886218.8987129809.5402145065,1.7807128175,1.1155112509,2.6969919479,1.6253634747,7.333328477,4.0805402064,7.1115291379,4.3690017702,10.8858762794.4389252636,2.0547148847-2.1394681664,3.3933578587-5.5432512748,7.3550928316-5.3941308582,2.8019272646.1054707676,3.2987607396-.6961706025,3.2320470508-3.5922326847-.0858269461-3.7258501691-.2480751456-7.464439428-.014315083-11.1746595918.0744034781-1.1811455236,1.0520394418-2.656116086,2.0608953145-3.3576873001,2.4280479402-1.6883884313,5.1648189563-2.9264836791,7.6797286775-4.5017231204.591599923-.3705546661,1.0661052388-1.2675827577,1.0654840548-1.9656521265-.0027075407-3.0426592433-.1074786043-6.0939838451-.3760368777-9.1243492612-.1672529178-1.8871643001.5079709591-3.0497571344,2.1467540367-3.8553060058,2.3505970057-1.155444966,4.6664946315-2.3814155658,6.99774006-3.5762849963,2.3122116111-1.1850530248,3.0729923383-3.1522416814,2.8706746167-5.626801913-.1662201981-2.0329172765-.4182355664-4.068661932-.4160430232-6.1029452456.0025420791-2.3340807935.6944324623-4.1299112211,3.5027308126-4.6430963956,1.8734805318-.3423670066,3.6130888222-1.4173428599,5.4125948518-2.164438053,2.8695624571.900345489,3.4202403454,3.5737117637,4.4771732894,5.8577892476-.8431123145,1.1864190619-1.686192853,2.3728381238-2.5293051675,3.5592571857-.2484246815-.1985836651-.496817587-.3971355618-.7452422686-.5957192269.2999017836,2.2054191644.6969427654,4.4029915579.876159343,6.6181635915.2465181222,3.0474062799.6652303284,6.1412895879.3692687674,9.1522576238-.2189365638,2.2274028304-1.6595010223,4.3090209162-2.1676944134,6.543793993-.2827427495,1.2434113983-.0385124986,2.7712444177.4345684247,3.9899718443,1.2680208386,3.2664487324,4.7497477225,3.6636795992,7.2916044056,5.3049572304,1.0477496833.676537791,2.1539989622,1.7624101723,2.5189144191,2.8927264103.7778444332,2.4094352094,1.1667825378,4.9570625389,1.5686534699,7.471460223.3973269657,2.4856473695.988169704,4.6853482392,3.740224554,5.6519941777,1.3563263118.476397479,2.5719803206,1.3494857637,3.857891041,2.0305664221,2.8818915408,1.5263399091,3.7156617145,3.1330218578,3.2330479945,6.4495692048-.3342516277,2.2968483419-.7322141131,4.584833327-1.1309709983,6.8716746533-.3235113434,1.8555548382-.0404826099,3.2752167842,1.9232099545,4.210920395,2.3184714809,1.1047427537,4.647842126,2.3193403007,6.6561799549,3.8903782129,1.1371037641.8895442658,2.2946712652,2.5946761869,2.2840263089,3.9231948703-.0187160575,2.3356374404-.669488311,4.7648643029-1.5325877225,6.9681232227-.9131148181,2.3307768899-.3893829685,3.8136259917,1.6692562509,4.9322832622,2.174526251,1.181717353,4.3249663024,2.4259547272,6.5760409108,3.4435252561,2.3952422702,1.0826637827,3.6156944533,2.8224866912,3.4726389511,5.399023177-.1318068021,2.3749348318-.6099083317,4.7388460623-.6173439131,7.1086026607-.0030822709.9796709428.5588443174,2.3350338426,1.3207372042,2.8742054893,2.4354071202,1.7234940006,5.228230564,2.9582644204,7.5845790237,4.7697566216,1.0147662067.7801659969,1.8229567094,2.5217043939,1.8029060604,3.8121328814-.0436284328,2.8074285154-.5908427383,5.6221637407-1.1075203185,8.4013820026-.2941503296,1.5823791965.40212514,2.3336995739,1.6296951447,3.038828838,3.5147739124,2.0190027596,7.3727920574,3.5881663419,9.6756297518,7.2563888085.2073701038.3303268196.9082530918.4590519853,1.3922967313.4903755326,3.3267871619.2150714146,6.6592622258.3440507268,9.9849372281.5731637315,2.059560723.1418772434,3.6218589952-.2531298422,4.5528001431-2.4266536299.9402515127-2.1951262341,2.4563792729-4.1469708001,3.3635519811-6.3520722815,1.0199139169-2.479007794,2.628255597-3.2543450089,5.1856507388-2.9963228479.9759359483.0985452774,2.4443679491-.2386434958,2.9621576888-.9249023876,1.2619198487-1.6725376418.1670781498-5.6886865681-1.6906097155-6.9040147862-2.1519652988-1.4077806006-4.3534375885-2.7481488612-6.5951382801-4.0080797773-1.7132024436-.9629608151-2.4975927305-2.1194541352-1.8256894444-4.1600593411.5332328704-1.6194210384,1.0130820793-3.3321773524,1.0643049735-5.0172317058.0813783077-2.6771784711.4929091404-5.5849948255-2.3811972831-7.3826678148-1.9405596445-1.2137398029-3.7733351344-2.6172634508-5.7815458593-3.7001178433-1.7826012034-.9612135585-2.8814466769-2.2043072738-2.726030315-4.2587952284.1655846783-2.1886772685.2890026194-4.4045799731.7445749728-6.5417608216.6795295234-3.1879492545-.0835072989-5.0640264168-2.8134460606-6.6322051816-2.1442437335-1.231752431-4.2360570853-2.5881636848-6.190343957-4.0973487101-.6150560419-.4749679054-.9979884846-1.6265371384-.991029543-2.4643626061.0283441821-3.4153785392.3912259758-6.8324407985.3134701308-10.2416562868-.0238637677-1.0454630993-.8232840974-2.3743630023-1.6816806625-3.038828838-1.9558121191-1.5139502708-4.2493712247-2.5854316107-6.2523389114-4.0467735709-1.8589589049-1.3562841806-2.5318790226-3.2748991012-2.0320427166-5.6395410027.5721266808-2.7065641519,1.0174671658-5.4463579492,1.3521636573-8.1919018094.077628741-.6369862531-.3585284832-1.5033396574-.8314823025-2.0084874511-1.2749480042-1.3618436338-2.7514193302-2.5333951296-4.0495955823-3.8755741835-2.5839598685-2.6715872497-2.2441156668-5.4957576611.8324991342-7.8718043836,1.8159351915-1.4024370512,3.5999025851-2.8465873895,5.3865713811-4.2864153554,1.2874648578-1.03753304,1.8424557086-2.7317959125,1.4126981352-4.3284640049-.5775954451-2.1459266216-1.0395875235-4.3280602205-1.4393274782-6.5153152348-.4052391869-2.2174275831.1578948891-4.1660000139,2.2042685767-5.3459065736,1.7706534316-1.020937969,3.5723837804-2.1029663857,5.5017900527-2.7048486635,2.4406501584-.7613909296,3.8822950005-2.2080877019,4.5219774338-4.5942685132,2.3618139298.5904456885,5.4346791641.5963863613,6.2862756676,3.1731769934.9035502455,2.7339166612,1.1061221749,5.8588376016.8949707284,8.7606497467-.2582116861,3.5494090116.1338404655,5.0833415453,3.1523052066,6.5949091933,2.1178696627,1.0605212752,4.2107951742,2.1807034243,6.3790933313,3.1272082583,1.433351309.6256767371,2.2282912243,1.5862549295,2.1423689502,3.1050022142-.1069897547,1.891453021-.3885567927,3.7723907337-.5628798681,5.660825766-.4808660406,5.2096205516-.7421599977,8.1791627197,5.2417989112,8.9814712242,1.0731386984.1438786465,2.4152293672,1.6050935335,2.817958251,2.7457662383.8882659948,2.5160178676,1.3248363068,5.2027903664,1.8152669201,7.844102423.3745753576,2.0174461127,1.4644600022,3.1964313916,3.4627566185,3.5337790062,2.8551043821.4820204687,5.8063946827.638225217,8.5499653436,1.4778297098,3.800440053,1.1631011271,7.4754602777,2.7619680732,11.1466356076,4.3107046363,2.1153911356.8924034132,3.972761241.9780825277,5.7330239243-.6888321245,1.4278222869-1.3521543011,2.9740101327-2.5827948415,4.3617311216-3.9730393385,2.3254939744-2.3298238409,4.0115597235-2.5985836883,6.7445172041-1.0562325542,1.3940126347.7867102675,2.9921224464,1.2417276783,4.3112390752,2.1252677347,2.8281583434,1.894375705,5.836899632.7960501487,8.1244212997-1.927764192,1.3344326555-1.588923467,2.6998151242-3.2309000009,4.3483216543-4.4462917555.9265560614-.6831773664,2.5684849619-.9799886259,3.6935456262-.6917548084,2.5418360111.6511639799,4.9917450574,1.7138246132,7.417261435,2.7496029804,1.9981779782.8532902695,4.2991161095-.100733925,4.9638406009-2.1692988543.6156746803-1.9159261739.5854286923-4.0518263784,1.1639534409-5.9934006616.531294535-1.7831231062,1.0872154615-3.961570981,2.3974030374-5.0071929219,1.6051958572-1.281056838,3.9763201518-1.6743484351,6.0707073587-2.2554860107,3.6473115623-1.0119475392,6.1454127087-5.6667029022,5.1345231726-9.1416787787-.5323431427-1.8300766588-.7298944659-3.9728487287-.3025391907-5.7922194692.2934194819-1.2490979247,1.9299782402-2.1773359842,2.9522118043-3.2621282432,1.7246735756-1.8301719637,4.1417459502-3.4049903039,4.963727232-5.5798165922.8656097147-2.2903040713.4273234992-5.1810608468.1630425993-7.76906569-.6650078965-6.5122480677-2.051044758-4.838471462,4.0595732428-9.1933658084.4866174946-.3467510325,1.1622703474-.499111816,1.5295054516-.9297947064,1.2812714259-1.5028313646,3.1962513993-2.945557099,3.5336170739-4.6721961616.6873781927-3.5182125376.5268141206-7.1577482262-1.2054856923-10.5977472005-.5726350967-1.1371781915-1.1471132007-2.6776867641.4212542854-4.0791454722,3.3186525087-2.965444057,3.1112824049-7.3355554207,2.5245069932-10.9406542683-.505810192-3.1076389834-3.0344480637-5.961036234-4.94679063-8.7352351039-1.0457477959-1.5170000279-1.5718310688-2.7652719767-.520014059-4.399655886,1.2425364955-1.9307504125.8426356747-3.612786777-.6930343187-5.2466306252-.5866483078-.6241518585-.8443515781-1.5692906554-1.2101885387-2.3868479456-2.3607498156-5.275920488-4.2818509924-5.7711791299-11.2965344344-4.2533994137-.937956329.2029473037-1.8603382141.4881701249-2.7823749069.754249099-1.5879676827.4582516239-2.9228393457.2615102168-3.8683280909-1.1584641956-1.352926281-2.0318053859-2.7538660813-4.0444227164-3.9298954319-6.1778231369-1.3482552106-2.4457463803-3.4044794548-3.5060452774-6.1373098315-2.7947211941-1.2887705594.3354415165-2.5391239481.8416694325-3.840795559,1.099437447-2.8462706572.5636650087-5.762353162,1.0254808364-7.954197327-1.5615709577-2.0063677176-2.3680728783-3.9105756307-4.825795909-5.7906973441-7.2965757124-1.3885789407-1.8248031204-2.8091563021-1.5777410242-4.728362482-.7239043314-3.2192572153,1.4321468893-6.572482,3.3223927149-10.094310182.5752286711,2.7770307773-2.8938700692,2.6465903427-5.9307610407.4329478493-9.059017653-3.0511622339-4.3117847586-4.1245869162-8.5589527879.3638668493-12.6534741189.5620854683-.5127404182,1.0909014762-1.061855544,1.6510168332-1.5768197434,2.0615943863-1.8953922907,2.1885712381-5.3379009611.2925615301-7.4328617343-1.2107605065-1.3378267963-2.5770009269-2.5901333196-3.5133439929-4.1035117609-.74095251-1.1975379682-1.6710674823-3.049502988-1.2371981293-4.0633248571,1.5485074929-3.6184415351,3.6429582518-7.0033860395,5.5308333066-10.4766464276,2.0836786986,1.586509076,3.8928128528.8408434566,5.3293417607-.877631152.9137503379-1.0931473229,1.4772339498-2.486536882,2.1555242097-3.7676572566,3.9348207102-7.4317180754,1.7015724317-6.915514912,10.9797798898-5.6121567251,4.7520991457.6675155928,4.917938032,1.8322369035,7.4093344446-3.6243504395.4509012831-.9874859455,1.011302624-2.0586496023,1.8231473653-2.7214952545,2.0619439222-1.6834659382,2.4058872265-5.6903067517,6.3976187329-4.8091810862,1.3198157006.2913471112,2.6610801936.6936291382,3.9906828988.6868307212,2.2912394584-.0116907357,5.2070995313.5072762701,6.727548826-.6652918115,2.3971170535-1.8486611163,3.9587480299-4.8460323182,5.6829449657-7.4821026047,1.6806956069-2.5696109955,1.2427271514-5.0233153358-1.7024939353-7.42947841,3.4603098674-2.0907197047,6.5451864255-3.9546137225,9.6508444804-5.8310562202.7538217856.6226428642,1.3975715455,1.1543330754,2.0737010381,1.7128198507,1.9715730097-1.4190583484.4743837389-2.7560432846.2577350463-4.149051624-.778416401-5.00469911-2.2511699363-9.6357553186-5.6157387491-13.6032510882-.677940724-.7994493571-.8116540854-2.5002766732-.511275662-3.5981892415.6449572475-2.3573510759,1.5608048007-4.6839345498,2.6898692396-6.8545833061,1.3928051471-2.6775279225.7539171135-4.7454856377-1.0086969929-6.9579255972-1.1331317655-1.4222987152-2.2656915633-3.1537347917-2.5445894182-4.8841860507-.6043475336-3.7491204514-.6647536886-7.5863026401-.9315766677-11.3885873475-.0207179448-.2954611066.0836344029-.5997220332.1298366908-.8999007328-.0782960368.0313711997-.2152505491.1037076267-.2261814893.0880140848-.1807100491-.2584669171-.5210626666-.5530861636-.4870623584-.7912213665.3719061745-2.6026659153-1.3632217015-3.792722448-3.2323171468-4.8653633309-1.5502233964-.8896713391-3.3272002498-1.4861053528-4.6610609374-2.6165963165-.950769365-.8058347862-2.1633728789-2.9275127026-1.8324577301-3.3530650119,1.9491391615-2.5064714924,1.1054866551-5.2828782595,1.344251436-7.9512410264.2318058393-2.5906098441-1.0722171948-3.5496949263-3.4650444898-3.6571035604-3.4074346218-.1529802654-6.8097850854-.5418084159-10.2156626838-.5587091534-2.1420928044-.0106419113-2.8746239794-1.4080843131-3.5693873981-2.979544799-.6517867891-1.4742531872-1.1785155673-2.9993626363-1.7498005907-4.5066389549-1.0665833272-2.8140695537-3.1484124168-3.9136677086-5.927637312-2.9766752301-2.4234911243.8170331132-4.7736432662,1.8627821272-7.2195046867,2.5964075596-.9155615693.2745893311-2.1863469189.2780838445-2.9899934551-.1575549011-2.4530427941-1.3298052997-4.6404383206-3.1955895315-7.1674238409-4.3241585128-1.3454589236-.6008815762-3.3636790851-.561187081-4.7434243007.0049558553-1.6194315003.6644658357-2.9743596686,2.1148159629-4.2691358898,3.4003680158-3.0949495466,3.0728685752-5.2147257687,3.3195971042-8.873413135.981990029-1.2701816059-.8115530808-2.7460174121-1.2984817524-4.0295767092-2.0926099187-1.4176539705-.8770910909-2.5638456675-.283992749-2.9248526778.8955008227-1.1652890664,3.8076058982-5.3328688956,5.6038175455-6.2084880468,9.6054801254-.1508088435.6892133441-1.269704966,1.3678478431-2.0836469227,1.6772075824-4.2969716562,1.633097293-9.6521790719,1.7421102265-10.7422225965,7.8004527739-.0318395409.1768382614-.5461021459.2506836828-.603076494.4417859124-.517185996,1.7350100106-1.6389419574,3.6146134545-1.3258213624,5.2042834767.6414936647,3.2569976621-.1300908987,5.8313739032-3.2693361739,7.5919415139-4.0286552055,2.2593617438-5.7592708911,5.1733252649-4.9663010871,8.4210306983.3996148369,1.6367983004.9691676626,3.2402875346,1.2562319467,4.8945266335.4650733741,2.6802441125.4421628861,5.1259428403-2.7327032727,6.4578289638-1.8215585659.7641865403-3.3730212258,2.1563530197-5.0833320544,3.2050247177-2.2568896143,1.3837955314-2.9749951883,3.9302315496-2.1723337078,6.5193006311.5038814463,1.6253634927.588656483,3.3805936583.8079826801,5.0941530938Z"/><path class="cls-1" d="M558.5384556292,385.0500989177c1.1483743751.2811819851,2.3532530335.4179230114,3.5370801177.4474271978,1.7034904502.0424840729,2.3186560794,1.2127027267,2.564697881,2.5177068684.4146988966,2.1994918738.4683914134,4.4705075665.9409149011,6.6536951384.1740605769.8041418557.9630178315,1.7613045952,1.717378132,2.097877207,1.9265980164.8595569265,3.9713391298,1.4797315023,6.0073026413,2.0610397514,1.7040039031.4865135226,2.5255287499,1.4284230622,2.592668846,3.2536248763.0734971336,1.9992202921.5516197044,3.9855095861.5961923174,5.9831898917.033398897,1.4975269023.8088352219,2.116528155,2.007723595,2.5572087451,1.9282850763.7087360235,3.9010938653,1.3219684377,5.7654662645,2.1720410028,1.9849360606.905072084,2.4761639087,2.6210326313,1.3817265518,4.5011361874-.7952409416,1.3661147183-.5400547861,2.5331556222.3570210064,3.6745789723,1.3017012297,1.6562432918,2.7135992594,3.2353405918,3.9023897229,4.9680943256,1.0689358564,1.5580997058.2633036034,4.61480186-1.479233727,5.359739789-1.7484787155.7475045732-2.0484575353,2.0415332553-2.0596801515,3.6388415071-.0101468099,1.4427718256.011516018,2.8885502916-.0746951906,4.327386596-.1767011925,2.9502475297-.6031606085,3.4782184675-3.2795222983,4.2187808792-1.1457337595.3170416715-2.3036925911.5926503721-3.4625071778.85928804-3.1680785408.7289514022-4.2933475295,1.09647041-4.0535160646,4.6622481117.0428366527.6370410949-.2924726255,1.290093161-.352888932,1.9449785443-.4727679892,5.1254173941-.7219638594,4.2759559348-5.3782493301,5.5947466225-.8250945678.2336624007-1.7011921365.5662994915-2.5203453193.4908401514-2.6586108851-.2449311911-3.3811615479,1.3610303183-3.7733663118,3.5133937154-.3078273161,1.6893407801-.7328441735,3.3618394854-1.1935826918,5.017422783-.3709086882,1.3327483435-1.1294744136,2.1443456895-2.7313011639,2.0474976476-2.037895073-.1232966994-4.0924651444.0498662305-6.1343455909-.0359330191-1.4506270583-.060939467-2.4449166243.6383855276-2.6733054217,1.8746524927-.6345056934,3.4347566255-3.4777885179,4.367646244-6.0172049498,5.686045824-1.0990095338.570601676-2.2165033767,1.1059303273-3.3300118461,1.6482255842-1.5279139643.7441557136-2.875899317.8191750575-4.0362787129-.755106729-1.1234841283-1.5242688905-2.2168701289-3.1764788844-3.6838054334-4.3038712461-.9356581202-.7191003772-2.553353014-.8783300956-3.8176944233-.7637599866-1.7583321236.1593519396-3.4573970976.8913344263-5.2124040017,1.2098183075-.6779780499.1230522571-1.7889926045.0396485421-2.1005607927-.38810105-1.1381053145-1.5624507788-2.9272446199-2.6450368658-3.0955349628-4.9685098775-.173571574-2.3965368171-1.4393310917-3.185449917-3.9770604635-3.1901187651-2.2563326617-.004131075-4.5126653234-.000855548-7.0061888345-.000855548-.4733547927-1.9068944329-1.0364660649-3.7266940721-1.3601126243-5.5880977917-.4459217308-2.5644197932-1.2892316561-4.7248742307-3.6246849846-6.2755184461-1.6089906425-1.0682617678-2.9262910643-2.6061949834-4.2595085298-4.0405579936-.4056034429-.4363784056-.6974648149-1.2814399034-.5821334844-1.8454416371.4581957032-2.2406559582.9408415507-4.5023583991,1.7320726687-6.6386863808.444601423-1.2004072787.6495425321-1.8706925274-.4217894384-2.8968368857-2.1668695839-2.0754618475-4.0968539453-4.3981281995-6.2777090117-6.786647309.7815244108-2.2993954444,1.7079159262-4.733503044,2.3953928571-7.2333167356.1947209488-.7081004734-.0962968931-1.7517713452-.5316928369-2.3919657459-1.163276738-1.7104361512-1.9587255059-3.3314308625-.6370851836-5.326886743.2145622408-.3239349446-.1307226963-.9981557143.0632647482-1.3602725472.4194422246-.7829242635.8654495309-1.7524313394,1.5765086259-2.1411679395,2.2422860539-1.2259270555,4.6440726237-2.1578389047,6.9091339869-3.3464151758.5513507529-.2893463582.9933604605-1.0758150351,1.1764431407-1.7213627223.4681713621-1.6507188957.8224295021-3.3404507836,1.1131172671-5.0333359772.5694927598-3.3170332106,1.5196498155-4.1331527393,4.9697118698-4.38588164,1.7108988438-.1253011263,3.4239004-.3912299115,5.0962169162-.7692354943.4970469824-.1123212399,1.0938016531-.7542022924,1.2415783249-1.269120011.5813021795-2.0253756189,1.0769799539-4.0828954011,1.4614829223-6.1550328332.4036963317-2.1755365278,1.342948623-2.9451386855,3.4908204448-2.4687450744,1.927722723.4275784825,3.8192836827,1.23785584,5.7538279959,1.3334816704,1.1874946059.0587394862,2.5843802471-.6980783389,3.6052471199-1.4642338601,1.6632210625-1.2483179708,2.9917441004-2.9473142221,4.6725203665-4.1649791276.7606684378-.5510707357,2.1229571248-.753102302,3.0458522697-.5019867206,2.1002673909.5714327799,4.1278445031,1.4531850679,6.124712234,2.3438595,1.0805252248.4819424515,1.7089183821.2542688872,2.6220334692-.4796935823,2.2549145534-1.812588591,8.899754706,1.5877261135,10.7175006801,2.032806665Z"/><path class="cls-2" d="M236.7548242903,1001.4324517659c-36.39375,0-62.8845703125-27.233203125-62.8845703125-64.8650390625s25.995703125-64.8650390625,61.8943359375-64.8650390625c28.2237304688,0,50.258203125,16.83515625,56.6950195313,43.573828125l-33.9178710938,10.398046875c-2.9709960937-13.3693359375-11.3885742187-21.291796875-22.7771484375-21.291796875-14.8546875,0-25.7478515625,13.3693359375-25.7478515625,31.9376953125,0,18.5677734375,10.8931640625,31.937109375,25.7478515625,31.937109375,12.13125,0,22.28203125-9.1599609375,23.7673828125-23.0244140625l34.6608398438,10.398046875c-5.9419921875,28.4712890625-28.2237304687,45.8015625-57.4379882812,45.8015625Z"/><path class="cls-2" d="M323.1548242903,820.2066705159c12.3788085937,0,21.2915039062,9.1599609375,21.2915039062,21.786328125s-8.9126953125,21.7869140625-21.2915039062,21.7869140625c-12.3791015625,0-21.291796875-9.160546875-21.291796875-21.7869140625s8.9126953125-21.786328125,21.291796875-21.786328125ZM340.4850977278,874.6730767659v123.788671875h-34.6608398437v-123.788671875h34.6608398437Z"/><path class="cls-2" d="M487.2932031966,905.3726861409c-11.8836914062,0-20.3012695312,11.141015625-20.3012695312,27.2337890625v65.8552734375h-34.1654296875v-69.816796875c0-14.11171875-6.9322265625-23.272265625-17.8256835938-23.272265625-12.3788085938,0-21.2915039062,11.3888671875-21.2915039062,27.2337890625v65.8552734375h-34.6608398438v-123.788671875h26.7383789062l6.684375,17.330859375c5.1993164062-11.883984375,18.8159179688-20.3015625,34.41328125-20.3015625,15.3498046875,0,27.4810546875,8.1703125,34.1657226563,22.28203125,6.4368164062-13.6166015625,21.2915039062-22.28203125,37.1364257813-22.28203125,24.0149414062,0,41.09765625,20.0537109375,41.09765625,48.525v78.234375h-34.660546875v-70.80703125c0-13.3693359375-6.9322265625-22.28203125-17.3305664062-22.28203125Z"/><path class="cls-2" d="M641.5248438216,998.4617486409l-6.9322265625-18.0732421875c-6.437109375,12.6263671875-20.548828125,21.0439453125-36.1461914063,21.0439453125-25.00546875,0-43.5735351562-21.2912109375-43.5735351562-50.50546875v-76.25390625h34.6608398438v68.3314453125c0,14.3595703125,8.6651367187,24.2625,20.7963867188,24.2625,13.3690429687,0,23.272265625-11.8833984375,23.272265625-28.2240234375v-64.369921875h34.660546875v99.0310546875l.4954101563,24.7576171875h-27.2334960938Z"/><path class="cls-2" d="M739.3107813216,972.2187798909c8.6651367188,0,14.8543945313-4.70390625,14.8543945313-11.3888671875,0-21.7869140625-69.3213867187-13.8638671875-69.3213867187-54.4669921875,0-21.2912109375,19.55859375-35.1556640625,49.0201171875-35.1556640625,31.4422851563,0,53.971875,15.101953125,54.962109375,36.1458984375l-38.6217773438,7.923046875c0-9.903515625-6.437109375-15.3498046875-17.3305664062-15.3498046875-8.6651367187,0-13.3690429688,3.9609375-13.3690429688,9.4078125,0,21.7869140625,71.3021484375,12.8736328125,71.3021484375,53.4767578125,0,22.7765625-22.7771484375,39.1166015625-54.4669921875,39.1166015625s-56.4474609375-15.3498046875-58.4282226562-40.107421875l40.6028320312-8.417578125c.4951171875,10.89375,9.4078125,18.8162109375,20.7963867188,18.8162109375Z"/><path class="cls-2" d="M826.2056055403,931.1211236409l40.6025390625-8.4181640625c2.9709960937-.4951171875,4.4563476562-2.4755859375,4.4563476562-4.4560546875,0-8.6654296875-7.1797851563-14.8546875-17.3302734375-14.8546875-9.9032226563,0-17.8256835938,6.684375-18.8159179688,15.844921875l-33.6703125-11.883984375c5.694140625-20.79609375,26.9856445313-35.65078125,51.0005859375-35.65078125,30.9471679687,0,53.4767578125,19.55859375,53.4767578125,46.54453125v55.4572265625l.4951171875,24.7576171875h-27.2334960938l-5.4465820313-14.3595703125c-7.9224609375,10.6458984375-21.0442382812,17.3302734375-36.6416015625,17.3302734375-23.51953125,0-40.6025390625-15.3498046875-40.6025390625-36.641015625,0-15.844921875,12.3788085938-29.9572265625,29.709375-33.6703125ZM862.8469141341,942.0142877034l-18.8159179688,3.9609375c-6.9322265625,1.4859375-10.8931640625,5.9419921875-10.8931640625,11.883984375,0,6.684375,4.9514648438,11.38828125,13.8641601563,11.38828125,12.8739257812,0,24.2625-10.398046875,24.2625-27.233203125v-1.98046875c0,.4951171875-3.713671875.990234375-8.417578125,1.98046875Z"/></svg>