<?xml version="1.0" encoding="UTF-8"?><svg id="Livello_1" xmlns="http://www.w3.org/2000/svg" viewBox="0 0 1080 445"><defs><style>.cls-1{fill:none;}.cls-1,.cls-2,.cls-3,.cls-4,.cls-5{stroke-width:0px;}.cls-2{fill:#cf0;}.cls-3{fill:#000;}.cls-4{fill:#d1c5ff;}.cls-5{fill:#e7191f;}</style></defs><path class="cls-5" d="M150.6215692252,267.202109874c1.0327148438.6060180664,1.9521484375,1.3187866211,2.9916992188,1.717590332,1.8596191406.7132568359,2.41796875,1.7917480469,1.7006835938,3.6115112305-.7055664062,1.7906494141-1.1015625,3.6043701172.4838867188,5.170715332.4609375.4552612305,1.0991210938.7252197266,1.6201171875,1.1267700195,2.287109375,1.7623291016,2.9765625,1.7501831055,2.0786132812,5.2352905273-.6860351562,2.6624145508-.7905273438,3.2071533203,1.3740234375,4.4730834961.1291503906.0754394531.3212890625.2281494141.4252929688.3355712891,1.5598144531,1.6060791016,3.4064941406,2.4005737305,5.7270507812,2.3258666992.7204589844-.0231933594,1.7536621094.5564575195,2.1372070312,1.1742553711.6879882812,1.1083374023,1.0905761719,2.4289550781,1.4270019531,3.7095336914.2800292969,1.0651245117.9558105469,1.3657836914,1.8454589844,1.2290039062.9458007812-.1455078125,1.8532714844-.524597168,2.7888183594-.7552490234,1.0349121094-.255065918,2.1174316406-.9370117188,3.083984375.1298828125.4765625.5258789062.9279785156,1.0852661133,1.3142089844,1.6793823242.6137695312.9440917969,2.9931640625,1.8039550781,3.8015136719,1.2896728516,1.0227050781-.6508789062,2.0698242188-1.2794189453,3.0129394531-2.034362793.7482910156-.5986938477,1.390625-.6036376953,2.1591796875-.1415405273.4440917969.266784668.8798828125.5510864258,1.3327636719.8029785156,3.6235351562,2.0163574219,3.5139160156,2.1588134766,5.37890625.2169799805,1.0153808594-1.0571899414,1.6767578125-2.7390136719,3.6340332031-2.6653442383,1.3845214844.0521240234,1.6301269531-.3440551758,1.5971679688-1.7750244141-.0424804688-1.8410644531-.1225585938-3.6882324219-.0070800781-5.5216064453.0368652344-.5835571289.5197753906-1.3123779297,1.0183105469-1.6591186523,1.1997070312-.8342285156,2.5522460938-1.4459838867,3.7946777344-2.2243652344.2922363281-.1829833984.5268554688-.6262207031.5266113281-.9711914062-.0014648438-1.5033569336-.0532226562-3.0111694336-.1860351562-4.5084228516-.0825195312-.9325561523.2509765625-1.5069580078,1.0610351562-1.9050292969,1.1611328125-.5709838867,2.3056640625-1.1766357422,3.4575195312-1.7670898438,1.142578125-.5855712891,1.5183105469-1.5576171875,1.4184570312-2.7802734375-.08203125-1.0045166016-.2067871094-2.0104370117-.2055664062-3.0155029297.0012207031-1.1533203125.3430175781-2.0407104492,1.7307128906-2.2943115234.92578125-.1690673828,1.78515625-.700378418,2.6745605469-1.069519043,1.4177246094.4448852539,1.6899414062,1.7658081055,2.2121582031,2.8944702148-.4167480469.5861816406-.8332519531,1.1724243164-1.2497558594,1.7587280273-.1228027344-.0981445312-.2456054688-.1962890625-.3681640625-.2944335938.1479492188,1.0897216797.3442382812,2.1755981445.4328613281,3.2701416016.1218261719,1.5057983398.3286132812,3.0346069336.1823730469,4.522277832-.1081542969,1.1006469727-.8200683594,2.1291503906-1.0710449219,3.2333984375-.1396484375.6143798828-.0190429688,1.3692626953.2145996094,1.971496582.6267089844,1.614074707,2.3469238281,1.8103637695,3.6030273438,2.6212768555.517578125.3342895508,1.064453125.8709106445,1.2446289062,1.4293823242.3842773438,1.1904907227.5764160156,2.4493408203.7751464844,3.6917114258.1962890625,1.2282714844.48828125,2.3151245117,1.8481445312,2.7928466797.6701660156.2353515625,1.2707519531.6667480469,1.90625,1.0031738281,1.4240722656.7542114258,1.8359375,1.5480957031,1.5974121094,3.1868896484-.1652832031,1.1349487305-.3618164062,2.2653808594-.5588378906,3.3953857422-.1599121094.9169311523-.0200195312,1.6184082031.9501953125,2.0807495117,1.1457519531.5457763672,2.2966308594,1.1459350586,3.2890625,1.9223022461.5617675781.4395141602,1.1337890625,1.2819824219,1.1284179688,1.9384765625-.0090332031,1.1540527344-.3308105469,2.3543701172-.7570800781,3.4429931641-.4514160156,1.1517333984-.1923828125,1.8845214844.8247070312,2.4371948242,1.0744628906.583984375,2.1369628906,1.1986083984,3.2492675781,1.7014770508,1.18359375.5349121094,1.7866210938,1.3946533203,1.7158203125,2.6676635742-.0651855469,1.1735839844-.3010253906,2.3416748047-.3049316406,3.5124511719-.0014648438.4841308594.2761230469,1.1539306641.6525878906,1.4202880859,1.2033691406.8516235352,2.5832519531,1.4617919922,3.7478027344,2.3568115234.5014648438.3854980469.9006347656,1.2459716797.890625,1.8836669922-.021484375,1.3872070312-.2919921875,2.7779541016-.5473632812,4.1512451172-.1452636719.7818603516.1989746094,1.1530151367.8054199219,1.5014648438,1.7365722656.9976806641,3.6430664062,1.7730102539,4.7810058594,3.5855712891.1022949219.1631469727.4487304688.2268676758.6879882812.2423095703,1.6435546875.106262207,3.2902832031.1699829102,4.93359375.283203125,1.0178222656.0700683594,1.7895507812-.1251220703,2.2495117188-1.1990966797.4645996094-1.0846557617,1.2138671875-2.0490722656,1.662109375-3.138671875.50390625-1.2247924805,1.2985839844-1.6079711914,2.5622558594-1.48046875.4821777344.0486450195,1.2077636719-.117980957,1.4636230469-.45703125.6235351562-.8264160156.0825195312-2.8109130859-.8354492188-3.4113769531-1.0632324219-.6956176758-2.1508789062-1.3578491211-3.2585449219-1.98046875-.8466796875-.4758300781-1.2341308594-1.0472412109-.9020996094-2.0556030273.2634277344-.8001098633.5004882812-1.6463623047.5258789062-2.4790649414.0400390625-1.3228149414.2436523438-2.7595214844-1.1767578125-3.6477661133-.9587402344-.5997924805-1.8642578125-1.2933349609-2.8566894531-1.8283691406-.880859375-.4749145508-1.4235839844-1.0891723633-1.3469238281-2.1043701172.0817871094-1.0814819336.1428222656-2.1763305664.3679199219-3.2323608398.3356933594-1.5752563477-.0412597656-2.5021972656-1.3901367188-3.2770996094-1.0595703125-.6085205078-2.0930175781-1.2788085938-3.0588378906-2.024597168-.3039550781-.2346801758-.4931640625-.8037109375-.4897460938-1.217590332.0141601562-1.6876220703.193359375-3.3760986328.1550292969-5.0606689453-.0119628906-.5164794922-.4067382812-1.1731567383-.8308105469-1.5014648438-.9665527344-.7481079102-2.0998535156-1.2774658203-3.0895996094-1.9995727539-.9184570312-.6701049805-1.2509765625-1.6181030273-1.0041503906-2.7866210938.2827148438-1.3372802734.5029296875-2.6911010742.6684570312-4.047668457.0380859375-.3148193359-.1772460938-.7429199219-.4108886719-.9924316406-.6301269531-.6728515625-1.3596191406-1.2517700195-2.0012207031-1.9150390625-1.2766113281-1.3200683594-1.1088867188-2.7155761719.4116210938-3.8895874023.8972167969-.6929931641,1.7785644531-1.4064941406,2.6616210938-2.117980957.6359863281-.5126342773.91015625-1.3497314453.6977539062-2.1387329102-.2854003906-1.0603637695-.513671875-2.1384887695-.7109375-3.2192993164-.2001953125-1.095703125.0778808594-2.0584716797,1.0891113281-2.6416015625.8747558594-.5043334961,1.7651367188-1.0390625,2.7185058594-1.3364257812,1.2058105469-.3762207031,1.9182128906-1.0910644531,2.234375-2.2701416016,1.1669921875.2918701172,2.6853027344.2947387695,3.1062011719,1.5679321289.4465332031,1.3508911133.5463867188,2.8950805664.4421386719,4.3287353516-.1276855469,1.7539672852.0659179688,2.5119018555,1.5576171875,3.2587280273,1.0463867188.5240478516,2.0805664062,1.0774536133,3.1518554688,1.5451660156.7084960938.3092041016,1.1010742188.7838745117,1.05859375,1.5343017578-.052734375.9345703125-.1918945312,1.8639526367-.2780761719,2.7970581055-.2375488281,2.5741577148-.3666992188,4.0414428711,2.5900878906,4.4379272461.5302734375.071105957,1.193359375.7930297852,1.3923339844,1.3566894531.4389648438,1.2432250977.6545410156,2.5708007812.8969726562,3.8758544922.1850585938.9969482422.7236328125,1.5794677734,1.7111816406,1.74609375,1.4106445312.23828125,2.8688964844.3154296875,4.224609375.7302856445,1.8779296875.5747070312,3.6936035156,1.3646850586,5.5078125,2.1300048828,1.0451660156.4409790039,1.962890625.483215332,2.8325195312-.3404541016.7055664062-.6680908203,1.4697265625-1.276184082,2.1552734375-1.9630737305,1.1489257812-1.1513061523,1.9821777344-1.2840576172,3.3325195312-.5219116211.6889648438.3887329102,1.478515625.6135253906,2.1303710938,1.0501098633,1.3974609375.9360351562,2.8840332031.3933105469,4.0144042969-.9525146484.6594238281-.78515625,1.333984375-1.5964355469,2.1484375-2.1970214844.4580078125-.3375854492,1.2692871094-.4842529297,1.8251953125-.341796875,1.255859375.3218383789,2.4665527344.846862793,3.6647949219,1.358581543.9873046875.4216918945,2.1245117188-.049621582,2.4526367188-1.0717773438.3044433594-.9467773438.2895507812-2.0021972656.5751953125-2.9615478516.2626953125-.8809814453.5373535156-1.9574584961,1.1845703125-2.4740600586.7932128906-.6330566406,1.96484375-.827331543,2.9997558594-1.1145629883,1.8022460938-.5,3.0366210938-2.7999267578,2.537109375-4.5169067383-.2631835938-.9043579102-.3605957031-1.9631347656-.1496582031-2.8620605469.1450195312-.6173095703.9536132812-1.0758666992,1.458984375-1.6119384766.8520507812-.904296875,2.0463867188-1.6823730469,2.4526367188-2.7570800781.4274902344-1.1315917969.2109375-2.5599365234.0805664062-3.8388061523-.3286132812-3.2177124023-1.013671875-2.3906860352,2.005859375-4.5425415039.2404785156-.1713867188.57421875-.2467041016.7556152344-.4594726562.6330566406-.7424926758,1.5793457031-1.4554443359,1.74609375-2.3086547852.3395996094-1.73828125.2602539062-3.5366210938-.595703125-5.2363891602-.2829589844-.5620117188-.5666503906-1.3231201172.2082519531-2.0156860352,1.6396484375-1.4652709961,1.5373535156-3.6245117188,1.2473144531-5.4059448242-.25-1.5354614258-1.4992675781-2.9454345703-2.4443359375-4.3161621094-.5166015625-.7495727539-.7766113281-1.366394043-.2568359375-2.173828125.6140136719-.9541625977.4162597656-1.7852172852-.3425292969-2.5925292969-.2897949219-.3083496094-.4172363281-.7755126953-.5979003906-1.1793823242-1.1665039062-2.6068115234-2.1157226562-2.8516235352-5.5817871094-2.1016235352-.4633789062.1001586914-.9191894531.2411499023-1.3747558594.3726196289-.7846679688.2263793945-1.4443359375.1292724609-1.9113769531-.5723876953-.6684570312-1.00390625-1.3608398438-1.9984130859-1.9418945312-3.0525512695-.6662597656-1.2084960938-1.6823730469-1.7323608398-3.0327148438-1.380859375-.63671875.1657104492-1.2543945312.4158935547-1.8977050781.5430908203-1.4064941406.2785644531-2.8471679688.5068359375-3.9301757812-.7715454102-.9914550781-1.1701049805-1.9323730469-2.3845214844-2.861328125-3.6052856445-.6862792969-.9016723633-1.3879394531-.7796630859-2.3364257812-.3576660156-1.5905761719.7075805664-3.2475585938,1.6416015625-4.9877929688.2841796875,1.3723144531-1.4299926758,1.3078613281-2.9304199219.2141113281-4.4761352539-1.5078125-2.1306152344-2.0380859375-4.2291870117.1796875-6.2523803711.2778320312-.2532958984.5390625-.524597168.8159179688-.7791137695,1.0185546875-.9365844727,1.0812988281-2.637512207.14453125-3.672668457-.5983886719-.6610107422-1.2734375-1.2798461914-1.7360839844-2.0275268555-.3662109375-.591796875-.8256835938-1.5069580078-.611328125-2.0078125.7651367188-1.7879638672,1.8000488281-3.4605102539,2.7329101562-5.1766357422,1.0295410156.7838745117,1.9235839844.4154052734,2.6333007812-.4337158203.4514160156-.5401000977.7299804688-1.2285766602,1.0649414062-1.8616333008,1.9443359375-3.6721191406.8408203125-3.4170532227,5.4255371094-2.7730102539,2.3479003906.3297729492,2.4299316406.9053344727,3.6608886719-1.791015625.2229003906-.4877929688.4997558594-1.0170898438.9008789062-1.3446655273,1.0187988281-.8317871094,1.1887207031-2.811706543,3.1611328125-2.3762207031.6520996094.1438598633,1.3149414062.3426513672,1.9719238281.3392944336,1.1320800781-.0057983398,2.5727539062.2507324219,3.32421875-.3287353516,1.1843261719-.9134521484,1.9560546875-2.3944702148,2.8078613281-3.6970214844.8305664062-1.2695922852.6140136719-2.4820556641-.8410644531-3.6710205078,1.7097167969-1.0330200195,3.2338867188-1.9539794922,4.7685546875-2.8811645508.3725585938.3076171875.6904296875.5703735352,1.0246582031.8463134766.9741210938-.7012329102.234375-1.3618164062.1271972656-2.0501098633-.3845214844-2.4729614258-1.1123046875-4.7611694336-2.7746582031-6.7215576172-.3349609375-.3950195312-.4011230469-1.2354736328-.2526855469-1.7778930664.3188476562-1.1647949219.7712402344-2.314453125,1.3291015625-3.3869628906.6882324219-1.3229980469.3725585938-2.3448486328-.4982910156-3.4381103516-.5598144531-.7027587891-1.1196289062-1.5583496094-1.2573242188-2.413269043-.2985839844-1.8524780273-.3286132812-3.7485961914-.4604492188-5.6272583008-.0100097656-.1460571289.0412597656-.2963256836.0642089844-.4447021484-.0385742188.0154418945-.1064453125.0512084961-.1118164062.0435791016-.0893554688-.1278686523-.2573242188-.2733154297-.2404785156-.3910522461.18359375-1.2860107422-.6735839844-1.8740234375-1.5971679688-2.4039916992-.7661132812-.4396362305-1.6440429688-.734375-2.3032226562-1.2930297852-.4697265625-.3980712891-1.0688476562-1.4464111328-.9055175781-1.6567993164.9633789062-1.2384033203.5463867188-2.6102905273.6643066406-3.9287719727.1145019531-1.280090332-.5297851562-1.75390625-1.7121582031-1.8070678711-1.68359375-.0755615234-3.3647460938-.2676391602-5.0476074219-.2760620117-1.05859375-.0051879883-1.4204101562-.6956787109-1.763671875-1.4721679688-.3220214844-.7284545898-.5825195312-1.4820556641-.8647460938-2.2268676758-.5270996094-1.3904418945-1.5556640625-1.9337158203-2.9289550781-1.4707641602-1.197265625.4037475586-2.3586425781.9204101562-3.5671386719,1.2828369141-.4523925781.1358032227-1.0803222656.1373901367-1.4775390625-.0778808594-1.2121582031-.657043457-2.2927246094-1.5788574219-3.5415039062-2.1364746094-.6647949219-.2969360352-1.6618652344-.2774047852-2.34375.0024414062-.8000488281.3283081055-1.4697265625,1.0448608398-2.109375,1.6801147461-1.529296875,1.518371582-2.5766601562,1.6402587891-4.3845214844.4852294922-.6276855469-.4010009766-1.3569335938-.6416015625-1.9912109375-1.0340576172-.7004394531-.4332275391-1.2668457031-.1402587891-1.4450683594.442565918-.5759277344,1.8812866211-2.6350097656,2.7689819336-3.0678710938,4.7462768555-.0744628906.3404541016-.6271972656.6758422852-1.0295410156.8287353516-2.123046875.8068847656-4.7692871094.8607177734-5.3078613281,3.8542480469-.015625.0874023438-.2697753906.1239013672-.2978515625.2182617188-.2556152344.8572998047-.8098144531,1.7860717773-.6552734375,2.5715332031.3171386719,1.6093139648-.0642089844,2.8813476562-1.6154785156,3.7513427734-1.9904785156,1.116394043-2.845703125,2.5561523438-2.4538574219,4.1608276367.1975097656.8089599609.4787597656,1.6011962891.6208496094,2.4185180664.2297363281,1.3244018555.2182617188,2.5328979492-1.3503417969,3.1909790039-.9001464844.3775024414-1.6667480469,1.0654296875-2.5119628906,1.5836791992-1.1149902344.6837158203-1.4697265625,1.9419555664-1.0732421875,3.2211914062.2490234375.8031616211.291015625,1.6704101562.3994140625,2.5170898438-1.0983886719.5267944336-1.083984375.5198364258-2.1821289062,1.0466308594-.8264160156-.8409423828-1.587890625-1.6252441406-2.9755859375-.9180908203-.8884277344.4528198242-1.9450683594.5825195312-2.9328613281.8323974609-1.3837890625.3501586914-2.3901367188-.1069946289-3.2707519531-1.2678222656-2.1237792969-2.7985229492-3.296875-3.1253662109-6.4553222656-1.5056762695-1.8286132812.9378051758-3.2907714844,1.1434936523-4.9233398438-.3502807617-1.0561523438-.9661254883-2.40234375-1.6149902344-3.6186523438-2.4059448242.0478515625-.494934082.0249023438-1.0097045898.1569824219-1.4808959961.3491210938-1.24609375.2685546875-2.3013916016-.9702148438-3.0397949219-.8967285156-.5344848633-1.7395019531-1.1607055664-2.6442871094-1.6801147461-1.0234375-.5877075195-1.8527832031-1.2402954102-1.6767578125-2.5981445312.1281738281-.9901733398.2446289062-1.9863891602.2805175781-2.9830932617.0805664062-2.2363891602-1.7268066406-4.491027832-3.9028320312-5.0145263672-1.7219238281-.4143066406-2.0668945312-1.012878418-1.595703125-2.7473754883.8488769531-3.1249389648.3508300781-4.2637939453-2.5009765625-5.7247314453-.3774414062-.193359375-.7463378906-.407043457-1.08203125-.6664428711-.611328125-.4730834961-1.6706542969-.4684448242-1.6416015625-1.6322021484.0207519531-.8178710938-.1215820312-1.6389770508-.1196289062-2.4585571289.001953125-.8475952148.28515625-1.7432250977.08984375-2.5296020508-.2263183594-.9100952148-.669921875-1.9018554688-1.330078125-2.5331420898-.7734375-.7395629883-1.2595214844.2747802734-1.6372070312.7915649414-1.1750488281,1.608581543-2.9030761719,1.5224609375-3.8828125-.2404785156-.470703125-.8472290039-.9604492188-1.6842651367-1.455078125-2.5177983819-.8996582031-1.5159540595-2.0424804688-2.1571894111-3.7294921875-1.6947260322-1.7602539062.4824829102-3.6752929688.2630615234-5.189453125-.7563476562-.8229980469-.5543212891-1.7917480469-.9014282227-2.7163085938-1.2914428711-.337890625-.142578125-.8166503906-.3046875-1.0966796875-.172668457-1.5134277344.7126464844-3.4221191406,1.0085449219-3.6254882812,3.2368164062-.0368652344.4046020508-.3762207031.7816162109-.5849609375,1.1889648438-.4384765625-.2038574219-.7319335938-.3765258789-1.0478515625-.48046875-1.1484375-.378112793-2.2990722656-.751159668-3.4621582031-1.0787963867-.2236328125-.0629272461-.5212402344.0395507812-.66015625.2260131836-1.0090332031,1.3539428711-1.998046875,2.723815918-2.9594726562,4.1121826172-.4660644531.6731567383-.8251953125,1.4219970703-1.3076171875,2.081237793-.1867675781.2553710938-.6005859375.4729003906-.9167480469.4656982422-.8352050781-.0191040039-1.6752929688-.2731933594-2.4992675781-.2185668945-.8991699219.0594482422-1.7788085938.3801269531-2.6735839844.5525512695-1.4997558594.2887573242-1.2177734375,1.1940917969-.9897460938,2.3049926758.2631835938,1.2827148438.3740234375,2.6421508789.2661132812,3.9445800781-.1484375,1.7913818359-1.9846191406,1.969909668-3.1433105469,2.703125-2.1877441406,1.3840332031-2.5029296875,2.0393676758-1.4763183594,4.3931884766.857421875,1.9652709961.6728515625,3.5765991211-.5581054688,4.5579223633-.6428222656.5122680664-1.4011230469.8991088867-1.9731445312,1.475402832-.5563964844.5606689453-1.3913574219,1.3579711914-1.3056640625,1.9322509766.162109375,1.0865478516.7661132812,2.1801147461,1.421875,3.1033935547,1.0556640625,1.4857788086,1.2319335938,2.4234008789.1394042969,3.9044799805-.8305664062,1.1259155273-1.8823242188,2.0901489258-2.6984863281,3.2249145508-.6848144531.9521484375-1.6203613281,1.9551391602-.5029296875,3.3427124023.7163085938.8890991211,1.3422851562,1.8397216797,1.8657226562,2.8543701172.3813476562.7404174805,1.125,1.5645751953,1.1572265625,2.3811645508.0424804688,1.0700683594-.2282714844,2.1766357422-.5095214844,3.2291870117-.3369140625,1.2604370117.1472167969,2.1702270508,1.1076660156,2.8065795898,1.5876464844,1.0518188477,3.251953125,1.9875488281,5.1428222656,3.1284179688.03515625.4416503906.1452636719,1.2646484375.158203125,2.0889282227.0378417969,2.4019775391.8564453125,3.2445068359,3.2841796875,3.3872070312,1.2849121094.0755615234,2.5764160156.1571044922,3.8415527344.3732299805.4233398438.0723876953.951171875.4252929688,1.1596679688.80078125.47265625.8520507812.791015625,1.7995605469,1.0864257812,2.7357177734.662109375,2.0997314453,1.8474121094,2.8284301758,3.9992675781,2.4674072266.9787597656-.1643066406,1.9741210938-.2621459961,2.9653320312-.3021240234.3781738281-.0153198242.9565429688.0965576172,1.1181640625.3543701172.8745117188,1.3962402344,1.6472167969,2.8564453125,2.4548339844,4.2944946289.0307617188.8609008789-.0830078125,1.7595825195.1298828125,2.5728149414.2524414062.9628295898.7744140625,1.8561401367,1.1936035156,2.7737426758.5036621094,1.1029663086.2280273438,2.4066772461-.6596679688,3.2327880859-.8037109375.7481689453-1.6049804688,1.5137939453-2.30078125,2.3591918945-.6123046875.7440795898-.7319335938,1.5704956055.0021972656,2.4105224609.9152832031,1.0470581055,1.8159179688,2.1190185547,2.5913085938,3.2688598633.2404785156.3566894531.24609375,1.1149291992.025390625,1.49609375-.8454589844,1.4606323242-1.8266601562,2.8426513672-2.7570800781,4.25390625-.1921386719-.1506958008-.4318847656-.4646606445-.5681152344-.4246826172-.7145996094.208984375-1.5732421875.3326416016-2.0649414062.811340332-1.0905761719,1.0620117188-2.0466308594,2.2825927734-2.931640625,3.526550293-.58203125.8178710938-1.6130371094,1.1829833984-2.5756835938.8980712891-.9868164062-.2919921875-1.9794921875-.667175293-2.98828125-.7378540039-.7055664062-.0494995117-1.630859375.1538696289-2.1293945312.606262207-1.2067871094,1.0950927734-2.2822265625,2.3543701172-3.2866210938,3.6440429688-.4802246094.6165771484-.8850097656.9117431641-1.6713867188.7351074219-1.3142089844-.2950439453-2.6394042969-.5704956055-3.9750976562-.7268676758-.5043945312-.0590209961-1.220703125.0682373047-1.5454101562.399597168-.9794921875,1.0004272461-1.7797851562,2.1734008789-2.71875,3.2172851562-.4868164062.5410766602-1.234375,1.4348754883-1.6645507812,1.3325195312-1.4311523438-.3409423828-2.09765625.4824829102-3.0173339844,1.234375-.9831542969.8042602539-.9943847656,1.5993041992-.6125488281,2.6226196289.29296875.7844238281.4226074219,1.6466674805.8115234375,2.3747558594.8742675781,1.6368408203.3510742188,2.8179321289-.9580078125,3.9031982422-.7651367188.6343383789-1.41015625,1.4112548828-2.1496582031,2.0793457031-.6413574219.5794677734-.7192382812,1.2492675781-.3469238281,1.9448242188.5551757812,1.0373535156,1.2045898438,2.0238037109,1.787109375,3.0471191406.7509765625,1.3189086914.5456542969,2.1696166992-.5002441406,3.2388305664-1.5551757812,1.5894775391-2.6708984375,3.4632568359-3.3410644531,5.6599731445ZM211.2844110221,220.5597758896c.0961914062-.3499145508-.0476074219-.8656005859-.2626953125-1.1819458008-.5749511719-.8451538086-.9680175781-1.6460571289-.3146972656-2.6320800781.1059570312-.1600341797-.0646972656-.4932250977.03125-.6721191406.20703125-.3868408203.4274902344-.8659057617.7788085938-1.0579833984,1.1079101562-.6057739258,2.2946777344-1.0662231445,3.4140625-1.653503418.2724609375-.1430053711.4907226562-.5316162109.5810546875-.8505859375.2314453125-.815612793.4064941406-1.6505737305.5500488281-2.4870605469.2814941406-1.6389770508.7509765625-2.0422363281,2.4558105469-2.1671142578.8452148438-.0618896484,1.6916503906-.1932983398,2.5180664062-.380065918.2456054688-.0555419922.5405273438-.3726806641.61328125-.6271362305.2873535156-1.0007324219.5322265625-2.0173950195.7221679688-3.0412597656.1997070312-1.0749511719.6635742188-1.4552612305,1.7250976562-1.2198486328.9523925781.2112426758,1.8869628906.6116333008,2.8430175781.6588745117.5866699219.0290527344,1.2768554688-.344909668,1.78125-.7235107422.8220214844-.6168212891,1.4782714844-1.4562988281,2.3088378906-2.0579833984.3759765625-.272277832,1.0490722656-.3720703125,1.5048828125-.2479858398,1.0378417969.2823486328,2.0397949219.7180175781,3.0263671875,1.1580810547.5339355469.2381591797.8444824219.1256713867,1.2956542969-.2369995117,1.1142578125-.8956298828,4.3974609375.7845458984,5.2956542969,1.0044555664.5673828125.1389160156,1.1628417969.2064819336,1.7478027344.2210693359.8415527344.0209960938,1.1457519531.5992431641,1.2673339844,1.2440185547.2048339844,1.0868530273.2314453125,2.208984375.46484375,3.2877197266.0859375.3973388672.4758300781.870300293.8486328125,1.0365600586.9519042969.4247436523,1.9621582031.7312011719,2.9682617188,1.0184326172.841796875.2403564453,1.2478027344.7058105469,1.2810058594,1.6076660156.0363769531.9878540039.2727050781,1.9692993164.2946777344,2.9563598633.0163574219.7399902344.3996582031,1.0458374023.9919433594,1.2635498047.9528808594.3502197266,1.9274902344.6531982422,2.8488769531,1.0732421875.9807128906.4472045898,1.2236328125,1.2951049805.6826171875,2.2241210938-.3928222656.674987793-.2668457031,1.2516479492.1765136719,1.8156738281.6433105469.818359375,1.3408203125,1.5986328125,1.9282226562,2.4547729492.5280761719.7698974609.1301269531,2.2802734375-.7309570312,2.6483154297-.8640136719.3693847656-1.0122070312,1.0087890625-1.0178222656,1.798034668-.0048828125.712890625.005859375,1.4273071289-.0366210938,2.1382446289-.0874023438,1.4577636719-.2980957031,1.7186279297-1.6206054688,2.0845336914-.5661621094.1566772461-1.1381835938.2928466797-1.7109375.424621582-1.5654296875.360168457-2.1213378906.5417480469-2.0029296875,2.3036499023.0212402344.3148193359-.14453125.6374511719-.1743164062.9610595703-.2336425781,2.5325317383-.3566894531,2.1128540039-2.6574707031,2.764465332-.4077148438.1154785156-.8405761719.2797851562-1.2453613281.2425537109-1.3134765625-.1210327148-1.6706542969.6724853516-1.8645019531,1.7360229492-.1520996094.8347167969-.3620605469,1.6611328125-.5895996094,2.4791870117-.1833496094.6585083008-.5581054688,1.0595092773-1.349609375,1.0116577148-1.0070800781-.0609130859-2.0222167969.0246582031-3.03125-.0177612305-.716796875-.030090332-1.2080078125.3154296875-1.3208007812.9263305664-.3134765625,1.6971435547-1.7185058594,2.1580810547-2.9731445312,2.8095703125-.54296875.2819213867-1.0952148438.5464477539-1.6455078125.8143920898-.7548828125.3676757812-1.4208984375.4047851562-1.9943847656-.3731079102-.5551757812-.7531738281-1.0954589844-1.569519043-1.8200683594-2.1265869141-.4624023438-.3553466797-1.26171875-.4340209961-1.8864746094-.3773803711-.8688964844.0787353516-1.7082519531.4403686523-2.5754394531.5977783203-.3352050781.0607910156-.8840332031.0195922852-1.0380859375-.1917724609-.5622558594-.7720336914-1.4462890625-1.3069458008-1.5295410156-2.4550170898-.0856933594-1.1842041016-.7111816406-1.5739746094-1.9650878906-1.5762939453-1.1149902344-.0020751953-2.2297363281-.0004272461-3.4619140625-.0004272461-.2338867188-.942199707-.5122070312-1.8414306641-.671875-2.7611694336-.2204589844-1.2670898438-.6372070312-2.3346557617-1.791015625-3.1008300781-.7951660156-.5278320312-1.4460449219-1.2877807617-2.1049804688-1.9965209961-.2001953125-.2155761719-.3444824219-.6331787109-.2875976562-.9118652344.2265625-1.1071166992.46484375-2.2246704102.8559570312-3.2802734375.2197265625-.5931396484.3208007812-.9243164062-.2084960938-1.4313354492-1.0705566406-1.0255126953-2.0241699219-2.1732177734-3.1018066406-3.3533935547.3859863281-1.1361694336.8439941406-2.3389282227,1.18359375-3.5740966797Z"/><path class="cls-1" d="M969.6103387565,241.9305644638l-14.6770019531,3.0896606445c-5.4074707031,1.1590576172-8.4970703125,4.6349487305-8.4970703125,9.2698974609,0,5.214050293,3.8623046875,8.8833007812,10.814453125,8.8833007812,10.0422363281,0,18.9255371094-8.1108398438,18.9255371094-21.2428588867v-1.5448608398c0,.3862304688-2.8967285156.7724609375-6.5659179688,1.5448608398Z"/><path class="cls-4" d="M232.9777703971,392.7163921006c88.4172363281,0,160.0935058594-71.6763916016,160.0935058594-160.0934448242,0-88.4172363281-71.6762695312-160.0934448242-160.0935058594-160.0934448242S72.8842645377,144.2057109482,72.8842645377,232.6229472763c0,88.4170532227,71.6762695312,160.0934448242,160.0935058594,160.0934448242ZM154.462877819,258.3033061631c-.5825195312-1.0233154297-1.2319335938-2.009765625-1.787109375-3.0471191406-.3723144531-.6955566406-.2944335938-1.3653564453.3469238281-1.9448242188.7395019531-.6680908203,1.3845214844-1.4450073242,2.1496582031-2.0793457031,1.3090820312-1.0852661133,1.8322753906-2.2663574219.9580078125-3.9031982422-.3889160156-.7280883789-.5185546875-1.5903320312-.8115234375-2.3747558594-.3818359375-1.0233154297-.3706054688-1.818359375.6125488281-2.6226196289.9196777344-.7518920898,1.5861816406-1.5753173828,3.0173339844-1.234375.4301757812.102355957,1.177734375-.7914428711,1.6645507812-1.3325195312.9389648438-1.0438842773,1.7392578125-2.2168579102,2.71875-3.2172851562.3247070312-.3313598633,1.041015625-.4586181641,1.5454101562-.399597168,1.3356933594.1563720703,2.6608886719.4318237305,3.9750976562.7268676758.7863769531.1766357422,1.1911621094-.1185302734,1.6713867188-.7351074219,1.0043945312-1.2896728516,2.0798339844-2.5489501953,3.2866210938-3.6440429688.4985351562-.4523925781,1.423828125-.6557617188,2.1293945312-.606262207,1.0087890625.0706787109,2.0014648438.4458618164,2.98828125.7378540039.9626464844.2849121094,1.9936523438-.0802001953,2.5756835938-.8980712891.8850097656-1.2439575195,1.8410644531-2.4645385742,2.931640625-3.526550293.4916992188-.4786987305,1.3503417969-.602355957,2.0649414062-.811340332.1362304688-.0399780273.3759765625.2739868164.5681152344.4246826172.9304199219-1.4112548828,1.9116210938-2.7932739258,2.7570800781-4.25390625.220703125-.3811645508.2150878906-1.1394042969-.025390625-1.49609375-.775390625-1.1498413086-1.6760253906-2.2218017578-2.5913085938-3.2688598633-.7341308594-.8400268555-.6145019531-1.6664428711-.0021972656-2.4105224609.6958007812-.8453979492,1.4970703125-1.6110229492,2.30078125-2.3591918945.8876953125-.8261108398,1.1633300781-2.1298217773.6596679688-3.2327880859-.4191894531-.9176025391-.9411621094-1.8109130859-1.1936035156-2.7737426758-.212890625-.8132324219-.0991210938-1.7119140625-.1298828125-2.5728149414-.8076171875-1.4380493164-1.5803222656-2.8982543945-2.4548339844-4.2944946289-.1616210938-.2578125-.7399902344-.3696899414-1.1181640625-.3543701172-.9912109375.0399780273-1.9865722656.1378173828-2.9653320312.3021240234-2.1518554688.3610229492-3.3371582031-.3676757812-3.9992675781-2.4674072266-.2954101562-.9361572266-.6137695312-1.8836669922-1.0864257812-2.7357177734-.2084960938-.3754882812-.736328125-.7283935547-1.1596679688-.80078125-1.2651367188-.2161254883-2.556640625-.297668457-3.8415527344-.3732299805-2.427734375-.1427001953-3.2463378906-.9852294922-3.2841796875-3.3872070312-.0129394531-.8242797852-.123046875-1.647277832-.158203125-2.0889282227-1.8908691406-1.1408691406-3.5551757812-2.0765991211-5.1428222656-3.1284179688-.9604492188-.6363525391-1.4445800781-1.5461425781-1.1076660156-2.8065795898.28125-1.0525512695.5520019531-2.1591186523.5095214844-3.2291870117-.0322265625-.8165893555-.7758789062-1.6407470703-1.1572265625-2.3811645508-.5234375-1.0146484375-1.1494140625-1.9652709961-1.8657226562-2.8543701172-1.1174316406-1.3875732422-.1818847656-2.3905639648.5029296875-3.3427124023.8161621094-1.134765625,1.8679199219-2.0989990234,2.6984863281-3.2249145508,1.0925292969-1.4810791016.9162597656-2.4187011719-.1394042969-3.9044799805-.6557617188-.9232788086-1.259765625-2.0168457031-1.421875-3.1033935547-.0856933594-.5742797852.7492675781-1.3715820312,1.3056640625-1.9322509766.5720214844-.5762939453,1.3303222656-.9631347656,1.9731445312-1.475402832,1.2309570312-.9813232422,1.4155273438-2.5926513672.5581054688-4.5579223633-1.0266113281-2.3538208008-.7114257812-3.0091552734,1.4763183594-4.3931884766,1.1586914062-.733215332,2.9948730469-.9117431641,3.1433105469-2.703125.1079101562-1.3024291992-.0029296875-2.6618652344-.2661132812-3.9445800781-.2280273438-1.1109008789-.5100097656-2.0162353516.9897460938-2.3049926758.8947753906-.1724243164,1.7744140625-.4931030273,2.6735839844-.5525512695.8239746094-.0546264648,1.6640625.1994628906,2.4992675781.2185668945.3161621094.0072021484.7299804688-.2103271484.9167480469-.4656982422.482421875-.6592407227.8415527344-1.4080810547,1.3076171875-2.081237793.9614257812-1.3883666992,1.9504394531-2.7582397461,2.9594726562-4.1121826172.1389160156-.1864624023.4365234375-.2889404297.66015625-.2260131836,1.1630859375.3276367188,2.3137207031.7006835938,3.4621582031,1.0787963867.3159179688.1039428711.609375.2766113281,1.0478515625.48046875.2087402344-.4073486328.5480957031-.784362793.5849609375-1.1889648438.2033691406-2.2282714844,2.1120605469-2.5241699219,3.6254882812-3.2368164062.2800292969-.132019043.7587890625.030090332,1.0966796875.172668457.9245605469.3900146484,1.8933105469.737121582,2.7163085938,1.2914428711,1.5141601562,1.0194091797,3.4291992188,1.2388305664,5.189453125.7563476562,1.6870117188-.4624633789,2.8298339844.1787719727,3.7294921875,1.6947260322.4946289062.8335332451.984375,1.670569378,1.455078125,2.5177983819.9797363281,1.7629394531,2.7077636719,1.8490600586,3.8828125.2404785156.3776855469-.516784668.8637695312-1.5311279297,1.6372070312-.7915649414.66015625.6312866211,1.1037597656,1.623046875,1.330078125,2.5331420898.1953125.7863769531-.087890625,1.6820068359-.08984375,2.5296020508-.001953125.8195800781.1403808594,1.6406860352.1196289062,2.4585571289-.0290527344,1.1637573242,1.0302734375,1.1591186523,1.6416015625,1.6322021484.3356933594.2593994141.7045898438.4730834961,1.08203125.6664428711,2.8518066406,1.4609375,3.3498535156,2.5997924805,2.5009765625,5.7247314453-.4711914062,1.7344970703-.1262207031,2.3330688477,1.595703125,2.7473754883,2.1760253906.5234985352,3.9833984375,2.778137207,3.9028320312,5.0145263672-.0358886719.9967041016-.15234375,1.9929199219-.2805175781,2.9830932617-.1760253906,1.3578491211.6533203125,2.0104370117,1.6767578125,2.5981445312.9047851562.5194091797,1.7475585938,1.1456298828,2.6442871094,1.6801147461,1.2387695312.7384033203,1.3193359375,1.7937011719.9702148438,3.0397949219-.1320800781.4711914062-.1091308594.9859619141-.1569824219,1.4808959961,1.2163085938.7909545898,2.5625,1.4398193359,3.6186523438,2.4059448242,1.6325683594,1.4937744141,3.0947265625,1.2880859375,4.9233398438.3502807617,3.1584472656-1.6196899414,4.3315429688-1.2928466797,6.4553222656,1.5056762695.8806152344,1.1608276367,1.8869628906,1.617980957,3.2707519531,1.2678222656.9877929688-.2498779297,2.0444335938-.3795776367,2.9328613281-.8323974609,1.3876953125-.7071533203,2.1491699219.0771484375,2.9755859375.9180908203,1.0981445312-.5267944336,1.0837402344-.5198364258,2.1821289062-1.0466308594-.1083984375-.8466796875-.150390625-1.7139282227-.3994140625-2.5170898438-.396484375-1.2792358398-.0417480469-2.5374755859,1.0732421875-3.2211914062.8452148438-.5182495117,1.6118164062-1.2061767578,2.5119628906-1.5836791992,1.5686035156-.6580810547,1.580078125-1.8665771484,1.3503417969-3.1909790039-.1420898438-.8173217773-.4233398438-1.6095581055-.6208496094-2.4185180664-.3918457031-1.604675293.4633789062-3.0444335938,2.4538574219-4.1608276367,1.5512695312-.8699951172,1.9326171875-2.1420288086,1.6154785156-3.7513427734-.1545410156-.7854614258.3996582031-1.7142333984.6552734375-2.5715332031.0280761719-.0943603516.2822265625-.130859375.2978515625-.2182617188.5385742188-2.9935302734,3.1848144531-3.0473632812,5.3078613281-3.8542480469.40234375-.1528930664.955078125-.48828125,1.0295410156-.8287353516.4328613281-1.9772949219,2.4919433594-2.8649902344,3.0678710938-4.7462768555.1782226562-.582824707.7446289062-.875793457,1.4450683594-.442565918.6342773438.3924560547,1.3635253906.6330566406,1.9912109375,1.0340576172,1.8078613281,1.1550292969,2.8552246094,1.0331420898,4.3845214844-.4852294922.6396484375-.6352539062,1.3093261719-1.3518066406,2.109375-1.6801147461.6818847656-.2798461914,1.6789550781-.2993774414,2.34375-.0024414062,1.2487792969.5576171875,2.3293457031,1.4794311523,3.5415039062,2.1364746094.3972167969.2152709961,1.0251464844.213684082,1.4775390625.0778808594,1.2084960938-.3624267578,2.3698730469-.8790893555,3.5671386719-1.2828369141,1.3732910156-.4629516602,2.4018554688.0803222656,2.9289550781,1.4707641602.2822265625.7448120117.5427246094,1.4984130859.8647460938,2.2268676758.3432617188.7764892578.705078125,1.4669799805,1.763671875,1.4721679688,1.6828613281.0084228516,3.3640136719.2005004883,5.0476074219.2760620117,1.1823730469.0531616211,1.8266601562.5269775391,1.7121582031,1.8070678711-.1179199219,1.3184814453.2990722656,2.6903686523-.6643066406,3.9287719727-.1633300781.2103881836.4357910156,1.2587280273.9055175781,1.6567993164.6591796875.5586547852,1.537109375.8533935547,2.3032226562,1.2930297852.9235839844.5299682617,1.7807617188,1.117980957,1.5971679688,2.4039916992-.0168457031.1177368164.1511230469.2631835938.2404785156.3910522461.0053710938.0076293945.0732421875-.028137207.1118164062-.0435791016-.0229492188.1483764648-.07421875.2986450195-.0642089844.4447021484.1318359375,1.8786621094.1618652344,3.7747802734.4604492188,5.6272583008.1376953125.8549194336.6975097656,1.7105102539,1.2573242188,2.413269043.8708496094,1.0932617188,1.1865234375,2.1151123047.4982910156,3.4381103516-.5578613281,1.0725097656-1.0102539062,2.2221679688-1.3291015625,3.3869628906-.1484375.5424194336-.0822753906,1.3828735352.2526855469,1.7778930664,1.6623535156,1.9603881836,2.3901367188,4.2485961914,2.7746582031,6.7215576172.1071777344.688293457.8469238281,1.3488769531-.1271972656,2.0501098633-.3342285156-.2759399414-.6520996094-.5386962891-1.0246582031-.8463134766-1.5346679688.9271850586-3.0588378906,1.8481445312-4.7685546875,2.8811645508,1.455078125,1.1889648438,1.6716308594,2.4014282227.8410644531,3.6710205078-.8518066406,1.3025512695-1.6235351562,2.7835693359-2.8078613281,3.6970214844-.7514648438.5794677734-2.1921386719.3229370117-3.32421875.3287353516-.6569824219.0033569336-1.3198242188-.1954345703-1.9719238281-.3392944336-1.9724121094-.4354858398-2.1423339844,1.5444335938-3.1611328125,2.3762207031-.4011230469.3275756836-.6779785156.8568725586-.9008789062,1.3446655273-1.2309570312,2.6963500977-1.3129882812,2.1207885742-3.6608886719,1.791015625-4.5847167969-.6440429688-3.4812011719-.8991088867-5.4255371094,2.7730102539-.3349609375.6330566406-.6135253906,1.3215332031-1.0649414062,1.8616333008-.7097167969.8491210938-1.6037597656,1.217590332-2.6333007812.4337158203-.9328613281,1.7161254883-1.9677734375,3.388671875-2.7329101562,5.1766357422-.2143554688.5008544922.2451171875,1.416015625.611328125,2.0078125.4626464844.7476806641,1.1376953125,1.3665161133,1.7360839844,2.0275268555.9367675781,1.03515625.8740234375,2.7360839844-.14453125,3.672668457-.2768554688.2545166016-.5380859375.5258178711-.8159179688.7791137695-2.2177734375,2.0231933594-1.6875,4.1217651367-.1796875,6.2523803711,1.09375,1.545715332,1.158203125,3.0461425781-.2141113281,4.4761352539,1.740234375,1.357421875,3.3972167969.4234008789,4.9877929688-.2841796875.9484863281-.4219970703,1.6501464844-.5440063477,2.3364257812.3576660156.9289550781,1.2207641602,1.8698730469,2.4351806641,2.861328125,3.6052856445,1.0830078125,1.2783813477,2.5236816406,1.0501098633,3.9301757812.7715454102.6433105469-.1271972656,1.2609863281-.3773803711,1.8977050781-.5430908203,1.3503417969-.3515014648,2.3664550781.1723632812,3.0327148438,1.380859375.5810546875,1.0541381836,1.2734375,2.0486450195,1.9418945312,3.0525512695.4670410156.7016601562,1.1267089844.7987670898,1.9113769531.5723876953.4555664062-.1314697266.9113769531-.2724609375,1.3747558594-.3726196289,3.4660644531-.75,4.4152832031-.5051879883,5.5817871094,2.1016235352.1806640625.4038696289.3081054688.8710327148.5979003906,1.1793823242.7587890625.8073120117.9565429688,1.6383666992.3425292969,2.5925292969-.5197753906.807434082-.259765625,1.4242553711.2568359375,2.173828125.9450683594,1.3707275391,2.1943359375,2.7807006836,2.4443359375,4.3161621094.2900390625,1.7814331055.3923339844,3.9406738281-1.2473144531,5.4059448242-.7749023438.692565918-.4912109375,1.4536743164-.2082519531,2.0156860352.8559570312,1.6997680664.9353027344,3.4981079102.595703125,5.2363891602-.1667480469.8532104492-1.1130371094,1.5661621094-1.74609375,2.3086547852-.1813964844.2127685547-.5151367188.2880859375-.7556152344.4594726562-3.01953125,2.1518554688-2.3344726562,1.3248291016-2.005859375,4.5425415039.1303710938,1.2788696289.3469238281,2.7072143555-.0805664062,3.8388061523-.40625,1.0747070312-1.6005859375,1.8527832031-2.4526367188,2.7570800781-.5053710938.5360717773-1.3139648438.9946289062-1.458984375,1.6119384766-.2109375.8989257812-.1135253906,1.9577026367.1496582031,2.8620605469.4995117188,1.7169799805-.7348632812,4.0169067383-2.537109375,4.5169067383-1.0349121094.2872314453-2.2065429688.4815063477-2.9997558594,1.1145629883-.6472167969.5166015625-.921875,1.5930786133-1.1845703125,2.4740600586-.2856445312.9593505859-.2707519531,2.0147705078-.5751953125,2.9615478516-.328125,1.0221557617-1.4653320312,1.4934692383-2.4526367188,1.0717773438-1.1982421875-.51171875-2.4089355469-1.0367431641-3.6647949219-1.358581543-.5559082031-.1424560547-1.3671875.0042114258-1.8251953125.341796875-.814453125.6005859375-1.4890136719,1.4118652344-2.1484375,2.1970214844-1.1303710938,1.3458251953-2.6169433594,1.8885498047-4.0144042969.9525146484-.6518554688-.4365844727-1.44140625-.6613769531-2.1303710938-1.0501098633-1.3503417969-.7621459961-2.18359375-.6293945312-3.3325195312.5219116211-.685546875.6868896484-1.4497070312,1.2949829102-2.1552734375,1.9630737305-.8696289062.8236694336-1.7873535156.7814331055-2.8325195312.3404541016-1.8142089844-.7653198242-3.6298828125-1.5552978516-5.5078125-2.1300048828-1.3557128906-.414855957-2.8139648438-.4920043945-4.224609375-.7302856445-.9875488281-.1666259766-1.5261230469-.7491455078-1.7111816406-1.74609375-.2424316406-1.3050537109-.4580078125-2.6326293945-.8969726562-3.8758544922-.1989746094-.563659668-.8620605469-1.2855834961-1.3923339844-1.3566894531-2.9567871094-.396484375-2.8276367188-1.8637695312-2.5900878906-4.4379272461.0861816406-.9331054688.2253417969-1.862487793.2780761719-2.7970581055.0424804688-.7504272461-.3500976562-1.2250976562-1.05859375-1.5343017578-1.0712890625-.4677124023-2.10546875-1.0211181641-3.1518554688-1.5451660156-1.4916992188-.7468261719-1.6853027344-1.5047607422-1.5576171875-3.2587280273.1042480469-1.4336547852.0043945312-2.9778442383-.4421386719-4.3287353516-.4208984375-1.2731933594-1.9392089844-1.2760620117-3.1062011719-1.5679321289-.3161621094,1.1790771484-1.0285644531,1.8939208984-2.234375,2.2701416016-.9533691406.2973632812-1.84375.8320922852-2.7185058594,1.3364257812-1.0112304688.5831298828-1.2893066406,1.5458984375-1.0891113281,2.6416015625.197265625,1.0808105469.4255371094,2.1589355469.7109375,3.2192993164.2124023438.7890014648-.0617675781,1.6260986328-.6977539062,2.1387329102-.8830566406.7114868164-1.7644042969,1.424987793-2.6616210938,2.117980957-1.5205078125,1.1740112305-1.6882324219,2.569519043-.4116210938,3.8895874023.6416015625.663269043,1.37109375,1.2421875,2.0012207031,1.9150390625.2336425781.2495117188.4489746094.6776123047.4108886719.9924316406-.1655273438,1.3565673828-.3857421875,2.7103881836-.6684570312,4.047668457-.2468261719,1.1685180664.0856933594,2.1165161133,1.0041503906,2.7866210938.9897460938.7221069336,2.123046875,1.2514648438,3.0895996094,1.9995727539.4240722656.3283081055.8188476562.9849853516.8308105469,1.5014648438.0383300781,1.6845703125-.1408691406,3.373046875-.1550292969,5.0606689453-.0034179688.4138793945.1857910156.9829101562.4897460938,1.217590332.9658203125.7457885742,1.9992675781,1.4160766602,3.0588378906,2.024597168,1.3488769531.7749023438,1.7258300781,1.7018432617,1.3901367188,3.2770996094-.2250976562,1.0560302734-.2861328125,2.1508789062-.3679199219,3.2323608398-.0766601562,1.0151977539.4660644531,1.6294555664,1.3469238281,2.1043701172.9924316406.5350341797,1.8979492188,1.2285766602,2.8566894531,1.8283691406,1.4204101562.8882446289,1.216796875,2.3249511719,1.1767578125,3.6477661133-.025390625.8327026367-.2624511719,1.6789550781-.5258789062,2.4790649414-.33203125,1.0083618164.0554199219,1.5797729492.9020996094,2.0556030273,1.1076660156.6226196289,2.1953125,1.2848510742,3.2585449219,1.98046875.91796875.6004638672,1.458984375,2.5849609375.8354492188,3.4113769531-.255859375.339050293-.9814453125.5056762695-1.4636230469.45703125-1.263671875-.1275024414-2.0583496094.2556762695-2.5622558594,1.48046875-.4482421875,1.0895996094-1.1975097656,2.0540161133-1.662109375,3.138671875-.4599609375,1.0739746094-1.2316894531,1.2691650391-2.2495117188,1.1990966797-1.6433105469-.1132202148-3.2900390625-.176940918-4.93359375-.283203125-.2392578125-.0154418945-.5856933594-.0791625977-.6879882812-.2423095703-1.1379394531-1.8125610352-3.0444335938-2.587890625-4.7810058594-3.5855712891-.6064453125-.348449707-.9506835938-.7196044922-.8054199219-1.5014648438.2553710938-1.3732910156.5258789062-2.7640380859.5473632812-4.1512451172.0100097656-.6376953125-.3891601562-1.4981689453-.890625-1.8836669922-1.1645507812-.8950195312-2.5444335938-1.5051879883-3.7478027344-2.3568115234-.3764648438-.2663574219-.6540527344-.9361572266-.6525878906-1.4202880859.00390625-1.1707763672.2397460938-2.3388671875.3049316406-3.5124511719.0708007812-1.2730102539-.5322265625-2.1327514648-1.7158203125-2.6676635742-1.1123046875-.5028686523-2.1748046875-1.1174926758-3.2492675781-1.7014770508-1.0170898438-.5526733398-1.2761230469-1.2854614258-.8247070312-2.4371948242.4262695312-1.0886230469.748046875-2.2889404297.7570800781-3.4429931641.0053710938-.6564941406-.5666503906-1.4989624023-1.1284179688-1.9384765625-.9924316406-.7763671875-2.1433105469-1.3765258789-3.2890625-1.9223022461-.9702148438-.4623413086-1.1101074219-1.1638183594-.9501953125-2.0807495117.1970214844-1.1300048828.3935546875-2.2604370117.5588378906-3.3953857422.2385253906-1.6387939453-.1733398438-2.4326782227-1.5974121094-3.1868896484-.6354980469-.3364257812-1.2360839844-.7678222656-1.90625-1.0031738281-1.3598632812-.477722168-1.6518554688-1.5645751953-1.8481445312-2.7928466797-.1987304688-1.2423706055-.3908691406-2.5012207031-.7751464844-3.6917114258-.1801757812-.5584716797-.7270507812-1.0950927734-1.2446289062-1.4293823242-1.2561035156-.8109130859-2.9763183594-1.0072021484-3.6030273438-2.6212768555-.2336425781-.6022338867-.3542480469-1.3571166992-.2145996094-1.971496582.2509765625-1.1042480469.962890625-2.1327514648,1.0710449219-3.2333984375.1462402344-1.4876708984-.060546875-3.0164794922-.1823730469-4.522277832-.0886230469-1.094543457-.2849121094-2.1804199219-.4328613281-3.2701416016.1225585938.0981445312.2453613281.1962890625.3681640625.2944335938.4165039062-.5863037109.8330078125-1.1725463867,1.2497558594-1.7587280273-.5222167969-1.1286621094-.7944335938-2.4495849609-2.2121582031-2.8944702148-.8894042969.369140625-1.7487792969.9004516602-2.6745605469,1.069519043-1.3876953125.2536010742-1.7294921875,1.1409912109-1.7307128906,2.2943115234-.0012207031,1.005065918.1235351562,2.0109863281.2055664062,3.0155029297.0998535156,1.22265625-.2758789062,2.1947021484-1.4184570312,2.7802734375-1.1518554688.5904541016-2.2963867188,1.196105957-3.4575195312,1.7670898438-.8100585938.3980712891-1.1435546875.9724731445-1.0610351562,1.9050292969.1328125,1.497253418.1845703125,3.005065918.1860351562,4.5084228516.0002441406.3449707031-.234375.7882080078-.5266113281.9711914062-1.2424316406.7783813477-2.5949707031,1.3901367188-3.7946777344,2.2243652344-.4985351562.3467407227-.9814453125,1.0755615234-1.0183105469,1.6591186523-.1154785156,1.8333740234-.0354003906,3.6805419922.0070800781,5.5216064453.0329589844,1.4309692383-.2126464844,1.8271484375-1.5971679688,1.7750244141-1.9572753906-.0736694336-2.6186523438,1.6081542969-3.6340332031,2.6653442383-1.8649902344,1.9418334961-1.7553710938,1.7993774414-5.37890625-.2169799805-.4528808594-.2518920898-.888671875-.5361938477-1.3327636719-.8029785156-.7685546875-.462097168-1.4108886719-.4571533203-2.1591796875.1415405273-.9431152344.7549438477-1.990234375,1.3834838867-3.0129394531,2.034362793-.8083496094.5142822266-3.1877441406-.3455810547-3.8015136719-1.2896728516-.3862304688-.5941162109-.8376464844-1.153503418-1.3142089844-1.6793823242-.9665527344-1.0668945312-2.0490722656-.3849487305-3.083984375-.1298828125-.935546875.2306518555-1.8430175781.6097412109-2.7888183594.7552490234-.8896484375.1367797852-1.5654296875-.1638793945-1.8454589844-1.2290039062-.3364257812-1.2805786133-.7390136719-2.6011962891-1.4270019531-3.7095336914-.3835449219-.6177978516-1.4167480469-1.1974487305-2.1372070312-1.1742553711-2.3205566406.0747070312-4.1672363281-.7197875977-5.7270507812-2.3258666992-.1040039062-.107421875-.2961425781-.2601318359-.4252929688-.3355712891-2.1645507812-1.2659301758-2.0600585938-1.8106689453-1.3740234375-4.4730834961.8979492188-3.4851074219.2084960938-3.4729614258-2.0786132812-5.2352905273-.5209960938-.401550293-1.1591796875-.6715087891-1.6201171875-1.1267700195-1.5854492188-1.5663452148-1.189453125-3.380065918-.4838867188-5.170715332.7172851562-1.8197631836.1589355469-2.8982543945-1.7006835938-3.6115112305-1.0395507812-.3988037109-1.958984375-1.1115722656-2.9916992188-1.717590332.6701660156-2.1967163086,1.7858886719-4.0704956055,3.3410644531-5.6599731445,1.0458984375-1.0692138672,1.2512207031-1.919921875.5002441406-3.2388305664Z"/><path class="cls-2" d="M213.4111200065,228.9186015732c-.3911132812,1.0556030273-.6293945312,2.1731567383-.8559570312,3.2802734375-.0568847656.2786865234.0874023438.6962890625.2875976562.9118652344.6589355469.7087402344,1.3098144531,1.4686889648,2.1049804688,1.9965209961,1.1538085938.7661743164,1.5705566406,1.8337402344,1.791015625,3.1008300781.1596679688.9197387695.4379882812,1.8189697266.671875,2.7611694336,1.2321777344,0,2.3469238281-.0016479492,3.4619140625.0004272461,1.25390625.0023193359,1.8793945312.3920898438,1.9650878906,1.5762939453.0832519531,1.1480712891.9672851562,1.6829833984,1.5295410156,2.4550170898.1540527344.2113647461.7028808594.2525634766,1.0380859375.1917724609.8671875-.157409668,1.7065429688-.5190429688,2.5754394531-.5977783203.6247558594-.056640625,1.4240722656.0220336914,1.8864746094.3773803711.724609375.5570678711,1.2648925781,1.3734130859,1.8200683594,2.1265869141.5734863281.7778930664,1.2395019531.7407836914,1.9943847656.3731079102.5502929688-.2679443359,1.1025390625-.5324707031,1.6455078125-.8143920898,1.2546386719-.6514892578,2.6596679688-1.1124267578,2.9731445312-2.8095703125.1127929688-.6109008789.6040039062-.9564208984,1.3208007812-.9263305664,1.0090332031.0424194336,2.0241699219-.0431518555,3.03125.0177612305.7915039062.0478515625,1.1662597656-.3531494141,1.349609375-1.0116577148.2275390625-.8180541992.4375-1.6444702148.5895996094-2.4791870117.1938476562-1.0635375977.5510253906-1.8570556641,1.8645019531-1.7360229492.4047851562.0372314453.8376464844-.1270751953,1.2453613281-.2425537109,2.30078125-.6516113281,2.423828125-.2319335938,2.6574707031-2.764465332.0297851562-.3236083984.1955566406-.6462402344.1743164062-.9610595703-.1184082031-1.7619018555.4375-1.9434814453,2.0029296875-2.3036499023.5727539062-.1317749023,1.1447753906-.2679443359,1.7109375-.424621582,1.3225097656-.3659057617,1.533203125-.6267700195,1.6206054688-2.0845336914.0424804688-.7109375.0317382812-1.4253540039.0366210938-2.1382446289.0056152344-.7892456055.1538085938-1.4286499023,1.0178222656-1.798034668.8610839844-.3680419922,1.2590332031-1.8784179688.7309570312-2.6483154297-.5874023438-.8561401367-1.2849121094-1.6364135742-1.9282226562-2.4547729492-.443359375-.5640258789-.5693359375-1.1406860352-.1765136719-1.8156738281.541015625-.9290161133.2980957031-1.7769165039-.6826171875-2.2241210938-.9213867188-.4200439453-1.8959960938-.7230224609-2.8488769531-1.0732421875-.5922851562-.2177124023-.9755859375-.5235595703-.9919433594-1.2635498047-.0219726562-.9870605469-.2583007812-1.9685058594-.2946777344-2.9563598633-.033203125-.9018554688-.4392089844-1.3673095703-1.2810058594-1.6076660156-1.0061035156-.2872314453-2.0163574219-.5936889648-2.9682617188-1.0184326172-.3728027344-.1662597656-.7626953125-.6392211914-.8486328125-1.0365600586-.2333984375-1.0787353516-.2600097656-2.2008666992-.46484375-3.2877197266-.1215820312-.6447753906-.42578125-1.2230224609-1.2673339844-1.2440185547-.5849609375-.0145874023-1.1804199219-.0821533203-1.7478027344-.2210693359-.8981933594-.219909668-4.1813964844-1.9000854492-5.2956542969-1.0044555664-.451171875.3626708984-.76171875.4751586914-1.2956542969.2369995117-.9865722656-.4400634766-1.9885253906-.8757324219-3.0263671875-1.1580810547-.4558105469-.1240844727-1.12890625-.0242919922-1.5048828125.2479858398-.8305664062.6016845703-1.4868164062,1.4411621094-2.3088378906,2.0579833984-.5043945312.3786010742-1.1945800781.7525634766-1.78125.7235107422-.9560546875-.0472412109-1.890625-.4476318359-2.8430175781-.6588745117-1.0615234375-.2354125977-1.525390625.1448974609-1.7250976562,1.2198486328-.1899414062,1.0238647461-.4348144531,2.0405273438-.7221679688,3.0412597656-.0727539062.2544555664-.3676757812.5715942383-.61328125.6271362305-.8264160156.1867675781-1.6728515625.3181762695-2.5180664062.380065918-1.7048339844.1248779297-2.1743164062.528137207-2.4558105469,2.1671142578-.1435546875.8364868164-.3186035156,1.6714477539-.5500488281,2.4870605469-.0903320312.3189697266-.30859375.7075805664-.5810546875.8505859375-1.1193847656.5872802734-2.3061523438,1.0477294922-3.4140625,1.653503418-.3513183594.1920776367-.5717773438.6711425781-.7788085938,1.0579833984-.0959472656.178894043.0747070312.5120849609-.03125.6721191406-.6533203125.9860229492-.2602539062,1.7869262695.3146972656,2.6320800781.2150878906.3163452148.3588867188.83203125.2626953125,1.1819458008-.3395996094,1.235168457-.7976074219,2.4379272461-1.18359375,3.5740966797,1.0776367188,1.1801757812,2.03125,2.3278808594,3.1018066406,3.3533935547.529296875.507019043.4282226562.8381958008.2084960938,1.4313354492Z"/><path class="cls-3" d="M480.4640985221,262.4009624131c-11.5871582031,0-20.0842285156-10.428527832-20.0842285156-24.9120483398,0-14.4839477539,8.4970703125-24.9125366211,20.0842285156-24.9125366211,8.8835449219,0,15.4494628906,6.1798095703,17.7668457031,16.6083984375l26.4572753906-8.1109008789c-5.0209960938-20.8570556641-22.2087402344-33.989074707-44.2241210938-33.989074707-28.0021972656,0-48.2797851562,21.2428588867-48.2797851562,50.5969848633,0,29.3541870117,20.6638183594,50.5970458984,49.0522460938,50.5970458984,22.7880859375,0,40.1687011719-13.5182495117,44.8034667969-35.7268676758l-27.0366210938-8.1108398438c-1.1584472656,10.8147583008-9.0764160156,17.9598388672-18.5393066406,17.9598388672Z"/><rect class="cls-3" x="535.1130243033" y="189.4020610459" width="27.0368652344" height="96.5595092773"/><path class="cls-3" d="M548.6315789908,146.9163432724c-9.6560058594,0-16.6083984375,7.1450805664-16.6083984375,16.9940795898s6.9523925781,16.9945678711,16.6083984375,16.9945678711,16.6081542969-7.1455688477,16.6081542969-16.9945678711-6.9521484375-16.9940795898-16.6081542969-16.9940795898Z"/><path class="cls-3" d="M685.1625848502,187.0848003037c-12.3596191406,0-23.9467773438,6.7593383789-28.9677734375,17.3807373047-5.2143554688-11.0076293945-14.6770019531-17.3807373047-26.650390625-17.3807373047-12.1665039062,0-22.7880859375,6.5659790039-26.84375,15.8359375l-5.2138671875-13.5186767578h-20.8569335938v96.5595092773h27.0366210938v-51.3694458008c0-12.3596191406,6.9521484375-21.2432861328,16.6081542969-21.2432861328,8.4973144531,0,13.9045410156,7.1455078125,13.9045410156,18.153137207v54.4595947266h26.650390625v-51.3694458008c0-12.5529174805,6.5659179688-21.2432861328,15.8356933594-21.2432861328,8.1110839844,0,13.5183105469,6.9522094727,13.5183105469,17.3807373047v55.2319946289h27.0366210938v-61.0255737305c0-22.2086181641-13.3251953125-37.8511962891-32.0576171875-37.8511962891Z"/><path class="cls-3" d="M817.828112194,189.4020610459h-27.0366210938v50.2107543945c0,12.7462768555-7.7248535156,22.0157470703-18.1530761719,22.0157470703-9.462890625,0-16.2219238281-7.724609375-16.2219238281-18.9255981445v-53.3009033203h-27.0366210938v59.4807128906c0,22.7881469727,14.4836425781,39.3960571289,33.9887695312,39.3960571289,12.1665039062,0,23.1743164062-6.5660400391,28.1953125-16.4150390625l5.4074707031,14.0977783203h21.2429199219l-.3862304688-19.3118286133v-77.2476806641Z"/><path class="cls-3" d="M857.7983270377,216.4389262802c0-4.2487182617,3.6691894531-7.3383789062,10.4282226562-7.3383789062,8.4973144531,0,13.5185546875,4.2482910156,13.5185546875,11.9733276367l30.1264648438-6.1802368164c-.7724609375-16.4149780273-18.3464355469-28.1950683594-42.8725585938-28.1950683594-22.9809570312,0-38.2373046875,10.8147583008-38.2373046875,27.422668457,0,31.671875,54.0729980469,25.4915771484,54.0729980469,42.4861450195,0,5.2145385742-4.8278808594,8.8837280273-11.5869140625,8.8837280273-8.8835449219,0-15.8356933594-6.1798095703-16.2219238281-14.6773071289l-31.6716308594,6.5660400391c1.5451660156,19.3117675781,20.8569335938,31.28515625,45.576171875,31.28515625s42.4860839844-12.7457885742,42.4860839844-30.5123291016c0-31.6718139648-55.6181640625-24.7191772461-55.6181640625-41.7137451172Z"/><path class="cls-3" d="M1003.2131219596,266.6497417099v-43.258605957c0-21.049987793-17.5739746094-36.3063354492-41.7138671875-36.3063354492-18.732421875,0-35.3405761719,11.5871582031-39.7822265625,27.8088378906l26.2639160156,9.2699584961c.7724609375-7.1455688477,6.9523925781-12.3596191406,14.6772460938-12.3596191406,7.9177246094,0,13.5180664062,4.8278198242,13.5180664062,11.5871582031,0,1.5448608398-1.1584472656,3.0897216797-3.4760742188,3.4758911133l-31.6713867188,6.5664672852c-13.5183105469,2.8963623047-23.1743164062,13.9044189453-23.1743164062,26.2640380859,0,16.6079101562,13.3254394531,28.5812988281,31.6713867188,28.5812988281,12.1665039062,0,22.4018554688-5.214050293,28.5817871094-13.5182495117l4.2485351562,11.2009887695h21.2429199219l-.3859863281-19.3118286133ZM976.1762567252,241.9305644638c0,13.132019043-8.8833007812,21.2428588867-18.9255371094,21.2428588867-6.9521484375,0-10.814453125-3.6692504883-10.814453125-8.8833007812,0-4.6349487305,3.0895996094-8.1108398438,8.4970703125-9.2698974609l14.6770019531-3.0896606445c3.6691894531-.7723999023,6.5659179688-1.1586303711,6.5659179688-1.5448608398v1.5448608398Z"/></svg>