<?xml version="1.0" encoding="UTF-8"?><svg id="Livello_1" xmlns="http://www.w3.org/2000/svg" viewBox="0 0 1080 1080"><defs><style>.cls-1{fill:#cf0;}.cls-1,.cls-2,.cls-3{stroke-width:0px;}.cls-2{fill:#d1c5ff;}.cls-3{fill:#e7191f;}</style></defs><circle class="cls-2" cx="540" cy="540" r="378"/><path class="cls-3" d="M588.6255437438,404.9248370537c-2.5931452488,1.24364866-2.5590513074,1.2272975187-5.1521965561,2.4709461787-1.950852712-1.9852692993-3.7485446941-3.8372451674-7.0251155929-2.1674491482-2.0979037497,1.069156959-4.593256273,1.3751863211-6.9251584052,1.9653037372-3.2671912947.826820398-5.6433203075-.2526771438-7.7231329275-2.9935060584-5.0140974705-6.6076694619-7.7836714823-7.3793215535-15.2415543421-3.5550478855-4.3176631209,2.2140336694-7.7698065592,2.6998186821-11.6245888493-.8271539651-2.4931652761-2.2811362684-5.6721252415-3.8130806358-8.5437584338-5.6807603765.1126988408-1.1685229176.0586108116-2.3837452413.3703862231-3.4965253757.8241844171-2.942006991.6342275552-5.4339206584-2.2908634425-7.1773280905-2.1172923989-1.2619773244-4.1073166662-2.7404768158-6.2433304186-3.9670774869-2.4165374788-1.3877136223-4.3744574052-2.9282566104-3.9591770057-6.1343376241.3028603189-2.3379687562.5776289318-4.6900932137.6623534699-7.0433257315.1901210891-5.2806322656-4.077165147-10.60402477-9.214630522-11.8400153337-4.065706624-.9781428497-4.8807387751-2.3914849587-3.7681900669-6.4867784442,2.0044572599-7.3786212628.8286220731-10.0673216687-5.9049861626-13.5168669831-.8912068101-.4565543715-1.7622694765-.961140256-2.5543323564-1.5737803352-1.4436765536-1.1166463427-3.9449413422-1.105756595-3.8759032509-3.8535227197.0485643031-1.9312428212-.2870854681-3.8700464987-.2826368296-5.805106811.0046339984-2.0011066153.6730789977-4.1160152357.2117181183-5.9726316647-.5340219741-2.1488954104-1.5816392574-4.4905185287-3.1404421708-5.9810635019-1.8262773002-1.7463724738-2.9734699409.6486028628-3.8651995185,1.8690881355-2.774801162,3.7978477343-6.8547587017,3.5945570655-9.1680506964-.5679166667-1.111677677-2.0003468233-2.2678046666-3.9766953408-3.4359059079-5.9448714622-2.1243088008-3.5793288437-4.8220797792-5.0933027776-8.8055637975-4.0013503592-4.1561221569,1.1392759754-8.6780315454.6210489594-12.2526809601-1.785854174-1.9435932204-1.3086711645-4.2309897361-2.128590245-6.413654703-3.0492682117-.7981042741-.3366619488-1.9283364807-.7193191064-2.5898675544-.4077673541-3.5729239722,1.6826055467-8.0797283713,2.3814473341-8.5597735322,7.6426357843-.0871747776.9552808278-.8882077388,1.8454604598-1.3808573753,2.807004938-1.0356059595-.4812262611-1.7283516463-.8888824262-2.4744624586-1.1344620015-2.7111977376-.8924637437-5.4281706501-1.7735275039-8.1745227515-2.5468084463-.5281918902-.1487211791-1.2307927271.0933255929-1.5586825781.5333175332-2.3825680772,3.1971430298-4.7179193219,6.4314245543-6.9877808015,9.7096642309-1.1004105673,1.589288363-1.9485825698,3.3573339041-3.0872500798,4.9139476538-.440990979.6028560713-1.4182509864,1.1164483086-2.1649904463,1.0994581567-1.9720234337-.0448683638-3.9555192808-.6448664428-5.9007370394-.5161073867-2.1234463488.1405985692-4.2003117458.8978146141-6.3131740423,1.3047851133-3.5404674475.6819410499-2.8748399192,2.8192542664-2.3367029546,5.4424080901.6213450397,3.0287529911.8836293484,6.2383364603.6285184692,9.3135850109-.3508492858,4.2295577998-4.6859362407,4.65101994-7.4219415683,6.3821780438-5.16501753,3.2680133214-5.9096083908,4.8153203108-3.4855082266,10.3730314584,2.0239822074,4.64034579,1.5890907268,8.4446795529-1.3180759652,10.7617669514-1.5176715437,1.2096072761-3.3076368326,2.1229142329-4.6584102903,3.4837756966-1.3138312226,1.3236501908-3.2853009603,3.2061736714-3.0830361987,4.5622725369.3826941228,2.5653725744,1.8088163943,5.1473679135,3.3576284071,7.327451856,2.4923311564,3.5081075697,2.9085754275,5.7219003295.3287173096,9.218926056-1.9612007972,2.6584192879-4.4444122448,4.9351265253-6.371488278,7.61448642-1.6167202768,2.247883863-3.8257494721,4.6164151702-1.1872404488,7.8924852167,1.6907039557,2.0992403429,3.1695110631,4.3437717887,4.4046111866,6.7395634258.9012364782,1.7481779626,2.6567894772,3.693904498,2.7331465908,5.6222991785.1000572932,2.5265119972-.5391935163,5.138991671-1.2035235251,7.6244193096-.7954165551,2.9759381865.347642559,5.1241849942,2.6153730815,6.626590134,3.7484227591,2.4833891725,7.678331431,4.6929938109,12.1426884049,7.386567374.083245147,1.0429534034.3432680645,2.9858710761.3738895258,4.9323097359.089213737,5.6712351801,2.0222027521,7.6604075027,7.7544587566,7.9976068653,3.0333646987.1784630989,6.083282903.3709738154,9.0703646803.8811999858.9993811159.1707052025,2.2458405076,1.004098643,2.737691786,1.890656707,1.1162498815,2.0120316389,1.86806766,4.2487711031,2.5652719382,6.4594298806,1.5635295917,4.957586716,4.3618158576,6.6784227685,9.4426243688,5.8256767876,2.3109193876-.387864512,4.6610609374-.6189153832,7.0018047386-.713277834.8928417372-.0360252561,2.2585737417.2281599556,2.639896201.8369571341,2.0649652892,3.296681568,3.8890553422,6.7441355042,5.7961310383,10.1396641485.0729205987,2.0325731199-.1959439878,4.1546904978.3071228771,6.0746290977.5956874633,2.2733143431,1.8284103682,4.3825560978,2.818048437,6.5493130204,1.1893962966,2.6041163338.5383989344,5.6824648927-1.5573534832,7.6328256887-1.8981546228,1.7664712349-3.7896783327,3.5741718079-5.4326466295,5.570338748-1.4459557846,1.7567871826-1.7281662864,3.7081181611.0054495821,5.6916569045,2.1607963758,2.4723258609,4.2876162754,5.0030630424,6.1180827102,7.7181516891.5678316263.8422942091.5811219337,2.6324010473.0600751551,3.5325135688-1.9961967531,3.448639953-4.3129549786,6.7117424241-6.5100448297,10.044115681-.4534830821-.355879125-1.019831829-1.0972136657-1.341523997-1.003073593-1.6868866288.4937906252-3.7147613948.7855507244-4.8755409187,1.9158987306-2.5747455294,2.5073247236-4.8321263799,5.3895274306-6.9216782019,8.3263509503-1.374059314,1.9312130326-3.808692893,2.7933005836-6.0814264223,2.1207642794-2.3297528476-.6894091848-4.6738156896-1.575456476-7.055750545-1.7423829918-1.6658853481-.1167485154-3.8507043715.3635511703-5.0277584978,1.4317074278-2.8492417121,2.5855904522-5.3886913641,5.5589712903-7.7602049145,8.6039949475-1.1336984374,1.4556872021-2.0893771926,2.1523608029-3.9459979143,1.7355130087-3.1032404318-.6966365376-6.2323571104-1.3469072363-9.3857930127-1.7161290489-1.1911414813-.139431084-2.8828474684.1610388251-3.6488844737.9434762558-2.3126803069,2.3622116262-4.202702889,5.1316346613-6.4199969731,7.5962143508-1.1494169599,1.2775623246-2.9140064736,3.3880789771-3.929853064,3.1462057038-3.3792969837-.8047493691-4.9530584438,1.1392801942-7.124049616,2.9147842023-2.3217073358,1.898775615-2.3480099106,3.7760546781-1.4460484646,6.1922300625.6913925593,1.8520762089.9976627807,3.8880961897,1.9157690771,5.6071161542,2.0641497054,3.8646723606.8290964554,6.6533311034-2.2621882605,9.2159054198-1.8066291471,1.4976054787-3.3296946649,3.3320026267-5.0756369691,4.909441852-1.5144648168,1.3683296624-1.6978414009,2.949808757-.8188460509,4.5923306466,1.3106986397,2.449309725,2.8444038178,4.7781646326,4.219904291,7.194302954,1.7728194948,3.1140350018,1.2882144795,5.1228136624-1.1816881247,7.6473613194-3.6718320338,3.7530756052-6.3062045087,8.1771772008-7.8886037418,13.3637763218,2.4382616632,1.4307808523,4.6089747955,3.1137755606,7.0641783568,4.0555098544,4.3903056797,1.684069536,5.7091230846,4.2303361231,4.0155634981,8.5272374316-1.6664414279,4.2280382159-2.6010818305,8.5102255051,1.1420767065,12.2084478396,1.0882111091,1.0751982313,2.5952429925,1.7125339358,3.8254583483,2.6606060061,5.3999241762,4.1612135895,7.0275512336,4.1324156224,4.9073857557,12.3612957371-1.6196303837,6.2861073079-1.866035127,7.5723520515,3.2447690575,10.5613561263.3048672643.1782986517.7580261619.5388610165,1.004064402.7922375001,3.6826196521,3.7924560721,8.0429134467,5.6680247226,13.5218830582,5.4916604847,1.7012334877-.0547420816,4.1408853505,1.3139211479,5.0465725312,2.7726845808,1.6246798344,2.6167975157,2.5748533996,5.7349465128,3.369454371,8.758510681.6609379219,2.5149853977,2.2568498944,3.2251128748,4.3573301472,2.9020715862,2.2331052866-.3434630131,4.3756993168-1.2387573419,6.5849117077-1.7832872425,2.4431180935-.6023111499,4.9992872117-2.2123287704,7.2814943452.3065482444,1.1250235923,1.2416482575,2.1913993011,2.5625372533,3.1031292157,3.9652613989,1.4488103276,2.2291553818,7.066680716,4.2595417835,8.9756285474,3.0449495311,2.4148507033-1.5365587134,4.8870888427-3.0207473785,7.1140031075-4.8030339195,1.7665794832-1.4137954572,3.2834362047-1.4254239651,5.0981775262-.3345867254,1.0484984777.6302502576,2.0774982871,1.3014297927,3.1464906059,1.8962573871,8.5555498899,4.7606302409,8.2967839942,5.0971687319,12.7001889926.5120794742,2.3971673655-2.4960461941,3.9589175018-6.4671264873,8.5809416368-6.293152668,3.268915142.1230492288,3.8485541962-.8121990363,3.7707215593-4.1909381321-.1001314371-4.3468251973-.2894210032-8.7085126659-.0167009301-13.037102857.0868040578-1.3780031108,1.2273793487-3.0988021003,2.404377867-3.9173018502,2.8327225969-1.9697865032,6.0256221157-3.414230959,8.9596834571-5.2520103072.6901999101-.4323137771,1.2437894453-1.4788465507,1.2430647306-2.2932608142-.0031587975-3.5497691171-.125391705-7.1096478193-.4387096907-10.6450741381-.1951284041-2.2016916835.5926327857-3.5580499902,2.5045463761-4.4978570068,2.7423631733-1.348019127,5.4442437368-2.77831816,8.1640300699-4.1723324957,2.697580213-1.3825618623,3.585157728-3.677615295,3.3491203861-6.5646022318-.1939235645-2.3717368226-.4879414941-4.746772254-.485383527-7.1201027865.0029657589-2.7230942591.810171206-4.818229758,4.0865192814-5.4169457949,2.1857272871-.3994281744,4.2152702926-1.6535666699,6.3146939938-2.5251777285,3.3478228666,1.0504030705,3.9902804029,4.169330391,5.2233688377,6.8340874555-.9836310336,1.3841555723-1.9672249952,2.7683111445-2.9508560288,4.1524667166-.2898287951-.2316809426-.5796205182-.4633248221-.8694493133-.6950057647.3498854142,2.5729890251.813099893,5.1368234842,1.0221859002,7.7211908567.2876044759,3.5553073266.7761020498,7.1648378526.430813562,10.6776338944-.2554259911,2.5986366354-1.936084526,5.0271910689-2.5289768156,7.6344263252-.3298665412,1.4506466314-.0449312484,3.2331184874.5069964955,4.6549671517,1.479357645,3.8108568545,5.5413723429,4.2742928658,8.5068718066,6.1891167688,1.2223746305.7892940895,2.5129987892,2.0561452011,2.938733489,3.3748474787.9074851721,2.8110077443,1.3612462941,5.7832396287,1.8300957149,8.7167035935.4635481267,2.8999219311,1.1528646547,5.4662396125,4.363595313,6.5939932073,1.5823806971.5557970589,3.0006437074,1.5744000576,4.5008728811,2.3689941591,3.3622067976,1.780729894,4.3349386669,3.6551921675,3.7718893269,7.5244974056-.3899602323,2.6796563989-.8542497986,5.3489722149-1.3194661647,8.0169537622-.3774299006,2.1648139779-.0472297115,3.8210862483,2.2437449469,4.9127404609,2.7048833944,1.2888665459,5.4224824804,2.7058970175,7.7655432807,4.5387745817,1.3266210582,1.0378016435,2.6771164761,3.0271222181,2.6646973604,4.577060682-.0218354004,2.7249103472-.7810696961,5.5590083534-1.7880190096,8.1294770931-1.0653006212,2.7192397049-.4542801299,4.4492303236,1.947465626,5.7543304726,2.5369472928,1.3786702451,5.0457940194,2.8302805151,7.6720477292,4.0174461321,2.7944493152,1.2631077465,4.2183101955,3.2929011398,4.0514121096,6.2988603732-.1537746025,2.7707573037-.7115597203,5.5286537394-.7202345652,8.2933697708-.0035959828,1.1429494333.651985037,2.7242061497,1.5408600716,3.3532397375,2.8413083069,2.0107430007,6.0996023246,3.4513084905,8.8486755276,5.5647160586,1.1838939078.9101936631,2.1267828276,2.9419884596,2.1033904037,4.4474883616-.0508998383,3.2753332679-.689316528,6.5591910308-1.2921070382,9.8016123363-.3431753845,1.8461090626.4691459967,2.7226495029,1.9013110021,3.545300311,4.1005695645,2.3555032195,8.6015907337,4.1861940655,11.2882347104,8.4657869432.2419317878.3853812896,1.0596286071.5355606496,1.6243461865.572104788,3.8812516889.2509166503,7.7691392635.4013925146,11.6490934328.66869102,2.4028208435.1655234506,4.225502161-.2953181492,5.311600167-2.8310959016,1.0969600981-2.5609806064,2.8657758183-4.8381326001,3.9241439779-7.4107509951,1.1898995698-2.8921757596,3.0662981966-3.7967358437,6.0499258619-3.4957099892,1.1385919396.1149694903,2.8517626073-.2784174117,3.455850637-1.0790527856,1.4722398235-1.9512939154.1949245081-6.6368009962-1.9723780014-8.0546839173-2.510626182-1.6424107007-5.0790105199-3.2061736714-7.6943279935-4.6760930735-1.9987361842-1.1234542843-2.9138581856-2.472696491-2.1299710185-4.8534025646.6221050154-1.8893245448,1.1819290925-3.8875402444,1.2416891357-5.8534369901.0949413589-3.123374883.5750606638-6.5158272965-2.7780634969-8.6131124505-2.2639862519-1.4160297701-4.4022243235-3.053474026-6.7451368359-4.3168041506-2.079701404-1.1214158182-3.3616877898-2.5716918195-3.1803687008-4.9685944331.1931821247-2.5534568133.3371697226-5.1386766353.8686708016-7.6320542919.792784444-3.7192741303-.0974251821-5.9080308195-3.2823537374-7.7375727119-2.5016176891-1.4370445028-4.9420665996-3.0195242989-7.2220679499-4.7802401617-.7175653822-.5541292229-1.1643198987-1.8976266614-1.1562011335-2.8750897071.0330682124-3.9846082957.4564303051-7.9711809316.3657151526-11.9485990013-.0278410623-1.2197069492-.9604981136-2.7700901694-1.961960773-3.545300311-2.2817808057-1.766275316-4.9575997622-3.0163368791-7.2943953967-4.7212358328-2.168785389-1.5823315441-2.9538588597-3.820715618-2.3707165027-6.5794645031.6674811276-3.1576581772,1.1870450268-6.354084274,1.5775242669-9.5572187777.0905668645-.7431506286-.4182832304-1.753896267-.9700626863-2.3432353596-1.4874393382-1.5888175727-3.2099892186-2.9556276512-4.7245281793-4.5215032141-3.0146198465-3.1168517913-2.6181349446-6.4117172713.9712489899-9.1837717808,2.1185910567-1.6361765597,4.1998863492-3.3210186211,6.2843332779-5.0008179147,1.5020423341-1.2104552133,2.14953166-3.1870952312,1.6481478244-5.0498746723-.6738613526-2.5035810585-1.2128521107-5.0494035906-1.6792153912-7.6012011072-.4727790514-2.586998847.1842107039-4.8603333496,2.5716466728-6.2368910025,2.0657623369-1.1910942972,4.1677810771-2.4534607833,6.4187550615-3.155656774,2.8474251848-.8882894179,4.5293441673-2.5761023189,5.2756403395-5.359979932,2.7554495848.6888533033,6.3404590248.6957840881,7.3339882789,3.7020398257,1.054141953,3.1895694381,1.2904758708,6.8353105352,1.0441325165,10.2207580378-.3012469671,4.1409771802.1561472097,5.9305651362,3.6776894077,7.6940607255,2.4708479399,1.2372748211,4.9125943699,2.544153995,7.4422755532,3.6484096347,1.6722431939.7299561933,2.599673095,1.8506307511,2.4994304419,3.6225025832-.1248213805,2.2066951912-.4533162582,4.4011225227-.6566931794,6.604296727-.5610103807,6.0778906436-.8658533306,9.5423565063,6.1154320631,10.4783830949,1.2519951482.1678584209,2.8177675951,1.8726091224,3.2876179596,3.2033939447,1.0363103272,2.9353541789,1.5456423579,6.0699220941,2.1178114068,9.1514528268.4370045839,2.3536871315,1.7085366692,3.7291699568,4.0398827216,4.122742174,3.3309551124.5623572135,6.7741271298.7445960865,9.9749595676,1.7241346614,4.4338467285,1.356951315,8.7213703239,3.2222960854,13.0044082089,5.029155409,2.4679563249,1.0411373154,4.6348881145,1.1410962823,6.6885279116-.8036374785,1.6657926681-1.5775133513,3.4696784882-3.0132606484,5.0886863086-4.6352125616,2.7130763035-2.7181278144,4.6801530107-3.0316809697,7.8686034048-1.2322713132,1.6263480738.9178286454,3.4908095208,1.4486822913,5.0297789211,2.4794790239,3.2995180673,2.2101049892,6.8097162374.9287251735,9.4784915163-2.249058224,1.5568380981-1.8537440449,3.1497843115-3.7693833344,5.07304193-5.1873403814,1.0809820717-.7970402608,2.9965657888-1.1433200636,4.3091365639-.8070472764,2.9654753463.7596913099,5.823702567,1.9994620488,8.6534716742,3.2078701438,2.3312076412.9955053145,5.015635461-.1175229125,5.7911473677-2.5308486633.718287127-2.2352472029.683000141-4.7271307748,1.357945681-6.9923007719.6198436242-2.0803102906,1.2684180384-4.6218328112,2.7969702103-5.8417250755,1.8727285001-1.494566311,4.6390401771-1.9534065076,7.0824919185-2.6314003458,4.2551968227-1.1806054624,7.1696481602-6.6111533859,5.9902770347-10.6652919085-.6210669998-2.1350894352-.8515435436-4.6349901835-.3529623891-6.7575893807.3423227289-1.4572809121,2.2516412802-2.5402253148,3.444247105-3.8058162837,2.0121191715-2.1352006243,4.8320369419-3.9724886879,5.791015104-6.5097860242,1.0098780005-2.6720214165.4985440824-6.0445709879.1902163658-9.0639099717-.775842546-7.5976227456-2.392885551-5.6448833724,4.7361687832-10.7255934432.5677204104-.4045428713,1.355982072-.5822971187,1.7844230269-1.0847604908,1.4948166636-1.7533032587,3.7289599658-3.4364832821,4.1225532528-5.4508955218.8019412248-4.1045812938.6146164741-8.3507062639-1.4063999744-12.3640384006-.6680742795-1.3267078901-1.3382987341-3.1239678914.4914633329-4.7590030509,3.8717612602-3.4596847331,3.6298294724-8.5581479908,2.9452581587-12.7640966464-.5901118906-3.6255788139-3.5401894076-6.954542273-5.771255735-10.1911076212-1.2200390953-1.7698333659-1.8338029136-3.2261506395-.6066830688-5.132931867,1.4496259114-2.2525421479.9830749538-4.2149179065-.8085400385-6.1210690627-.6844230258-.7281771683-.9850768411-1.830839098-1.4118866285-2.7846559365-2.7542081182-6.1552405694-4.9954928245-6.7330423182-13.1792901735-4.9622993159-1.0942823839.2367718543-2.1703945832.5695318124-3.2461040581.8799572821-1.8526289632.5346268946-3.4099792366.305095253-4.5130494394-1.3515415615-1.5784139945-2.3704396169-3.2128437615-4.7184931692-4.5848780039-7.2074603264-1.5729644124-2.853370777-3.9718926973-4.0903861569-7.1601948034-3.2605080597-1.5035656526.391348436-2.9623112728.9819476713-4.4809281521,1.2826770215-3.3206491.6576091768-6.7227453557,1.1963943092-9.2798968815-1.821832784-2.3407623372-2.7627516913-4.5623382358-5.6300952271-6.7558135682-8.5126716645-1.6200087641-2.1289369738-3.2773490192-1.8406978615-5.5164228957-.8445550533-3.7558000845,1.6708380376-7.6678956667,3.876124834-11.7766952123.6711001163,3.2398692401-3.3761817474,3.0876887331-6.9192212141.5051058242-10.5688539285-3.5596892729-5.0304155517-4.8120180689-9.9854449192.4245113242-14.7623864721.6557663797-.5981971546,1.272718389-1.238831468,1.9261863055-1.839623034,2.4051934507-2.2112910059,2.5533331111-6.2275511213.3413217851-8.6716720234-1.4125539242-1.560797929-3.0065010814-3.0218222062-4.0989013251-4.7874303877-.864444595-1.3971276295-1.9495787293-3.557753486-1.4433978175-4.7405456666,1.8065920751-4.2215151242,4.2501179604-8.1706170461,6.4526388577-12.2227541656,2.4309584817,1.8509272553,4.5416149949.9809840327,6.2175653875-1.0239030107,1.0660420609-1.2753385434,1.7234396081-2.9009596957,2.5147782446-4.3956001327,4.5906241619-8.6703377546,1.9851678369-8.0681007307,12.8097432047-6.5475161793,5.54411567.7787681916,5.7375943706,2.1376097207,8.6442235188-4.228408846.5260514969-1.1520669364,1.1798530613-2.4017578694,2.1270052596-3.1750777969,2.4056012426-1.9640435946,2.8068684309-6.6386912103,7.4638885217-5.6107112673,1.539784984.3399049631,3.1045935592.8092339946,4.6557967152.8013025081,2.6731127015-.0136391916,6.0749494532.5918223151,7.8488069637-.7761737801,2.7966365624-2.1567713023,4.6185393682-5.6537043712,6.63010246-8.7291197055,1.9608115414-2.9978794948,1.4498483433-5.8605345585-1.9862429245-8.6677248117,4.0370281786-2.4391729888,7.6360508298-4.6137160096,11.2593185605-6.8028989236.8794587498.7264166749,1.6305001364,1.3467219213,2.4193178778,1.9982898258,2.3001685113-1.6555680731.5534476954-3.2153838321.3006908873-4.840560228-.9081524678-5.8388156284-2.6263649257-11.2417145384-6.5516952073-15.8704596029-.7909308446-.9326909167-.9469297663-2.9169894521-.5964882723-4.1978874484.7524501221-2.7502429219,1.8209389341-5.4645903081,3.1381807796-7.9970138571,1.6249393383-3.1237825763.8795699658-5.5363999107-1.1768131583-8.1175798635-1.3219870598-1.6593485011-2.6433068238-3.6793572569-2.9686876546-5.6982170592-.7050721226-4.37397386-.77554597-8.8506864135-1.0868394457-13.2866852387-.0241709356-.3447046243.09757347-.6996757054.1514761393-1.0498841882-.0913453762.0365997329-.2511256406.1209922312-.2638784042.1026830989-.2108283906-.3015447366-.6079064444-.6452671909-.5682394182-.9230915943.433890537-3.0364435679-1.5904253184-4.424842856-3.7710366712-5.6762572194-1.8085939624-1.0379498956-3.8817336248-1.7337895783-5.437904427-3.0526957025-1.1092309259-.9401405839-2.5239350254-3.4154314864-2.1378673518-3.9119091805,2.2739956884-2.9242167411,1.289734431-6.1633579693,1.568293342-9.2764478641.2704401458-3.0223781515-1.2509200606-4.1413107474-4.0425519047-4.2666208205-3.9753403921-.1784769763-7.9447492663-.6321098186-11.9182731311-.6518273456-2.4991082718-.0124155632-3.353727976-1.6427650319-4.1642852978-3.4761355988-.7604179206-1.7199620517-1.3749348285-3.4992564091-2.0414340225-5.2577454474-1.244347215-3.283081146-3.6731478196-4.5659456601-6.915576864-3.4727877684-2.8274063117.9532052987-5.5692504772,2.1732458151-8.4227554679,3.0291421528-1.0681551642.3203542196-2.5507380721.3244311519-3.4883256977-.1838140513-2.8618832597-1.5514395163-5.4138447074-3.7281877868-8.361994481-5.0448515983-1.5697020776-.7010285056-3.9242922659-.6547182612-5.5339950175.0057818312-1.8893367503.7752101416-3.47008628,2.4672852901-4.9806585381,3.9670960184-3.6107744711,3.5850133377-6.0838467301,3.8728632882-10.3523153242,1.1456550338-1.4818785402-.9468119276-3.2036869808-1.5148953778-4.7011728274-2.4413782385-1.6539296322-1.0232729394-2.9911532787-.3313248738-3.4123281241,1.0447509598-1.3595039108,4.4422068812-6.2216803782,6.5377871363-7.2432360545,11.2063934796-.1759436507.8040822348-1.4813224603,1.5958224836-2.4309214098,1.9567421795-5.0131335988,1.9052801752-11.2608755839,2.0324619309-12.5325930292,9.1005282363-.0371461311.2063113049-.6371191702.2924642966-.7035892431.5154168978-.603383662,2.0241783457-1.9120989503,4.2170490303-1.5467915895,6.0716640561.7484092755,3.7998306058-.1517727152,6.8032695538-3.8142255362,8.8572650996-4.7000977398,2.6359220344-6.7191493729,6.0355461424-5.794017935,9.8245358147.4662173097,1.9095980171,1.1306956064,3.780335457,1.4656039378,5.7102810725.5425856031,3.1269514645.5158567005,5.980266647-3.1881538181,7.5341337911-2.1251516602.8915509637-3.9351914301,2.5157451897-5.9305540635,3.739195504-2.6330378834,1.61442812-3.4708277197,4.5852701412-2.5343893257,7.6058507362.5878616874,1.8962574081.6867658968,3.9440259347.9426464601,5.9431786094Z"/><path class="cls-1" d="M561.6621136153,468.0356639418c1.3397701043.3280456493,2.7454618725.4875768467,4.1265934707.5219983974,1.9874055252.0495647517,2.7050987593,1.4148198479,2.9921475278,2.9373246798.4838153794,2.5660738528.5464566489,5.2155921609,1.0977340513,7.7626443282.2030706731.9381654983,1.1235208034,2.054855361,2.0036078207,2.4475234082,2.2476976858,1.0028164143,4.6332289847,1.7263534194,7.0085197482,2.4045463766,1.9880045537.5675991097,2.9464502082,1.6664935726,3.0247803203,3.7958956891.0857466559,2.3324236741.6435563218,4.6497611838.6955577036,6.980388207.0389653799,1.7471147193.9436410922,2.4692828475,2.3423441942,2.9834102027,2.2496659223.826858694,4.5512761762,1.5422965106,6.7263773086,2.5340478366,2.3157587373,1.0559174313,2.8888578935,3.0578714031,1.6120143104,5.251325552-.9277810986,1.5938005047-.6300639172,2.9553482259.4165245074,4.2870088011,1.5186514346,1.9322838405,3.1658658027,3.7745640237,4.5527880101,5.7961100465,1.2470918325,1.8177829901.3071875373,5.3839355033-1.7257726815,6.2530297539-2.0398918348.8720886688-2.3898671245,2.3817887979-2.4029601768,4.2453150916-.0118379448,1.6832337965.0134353543,3.3699753402-.0871443891,5.0486176954-.2061513913,3.4419554513-.7036873766,4.0579215454-3.826109348,4.9219110258-1.3366893861.3698819501-2.6876413563.6914254341-4.0395917074,1.0025027134-3.6960916309.8504433025-5.0089054511,1.2792154784-4.7291020753,5.4392894636.0499760948.7432146108-.3412180631,1.5051086878-.411703754,2.269141635-.5515626541,5.9796536264-.8422911693,4.9886152572-6.2746242185,6.5272043929-.9626103291.2726061342-1.9847241593.66068274-2.9404028725.5726468433-3.1017126992-.2857530563-3.9446884725,1.5878687046-4.4022606971,4.0989593347-.3591318687,1.9708975768-.8549848691,3.9221460663-1.3925131404,5.8536599135-.4327268029,1.5548730674-1.3177201492,2.5017366377-3.1865180245,2.3887472556-2.3775442518-.1438461492-4.7745426684.058177269-7.1567365227-.0419218556-1.6923982347-.0710960448-2.8524027284.7447831156-3.1188563253,2.1870945748-.7402566423,4.0072160631-4.0574199376,5.0955872846-7.0200724414,6.633720128-1.2821777895.6657019554-2.5859206062,1.2902520485-3.8850138204,1.9229298483-1.7825662916.8681816658-3.3552158698.9557042337-4.7089918317-.8809578505-1.3107314829-1.7783137056-2.5863484837-3.7058920318-4.2977730056-5.0211831205-1.0916011402-.8389504401-2.9789118497-1.0247184449-4.4539768272-.8910533177-2.0513874776.1859105962-4.0336299472,1.0398901641-6.081138002,1.4114546921-.7909743915.1435609666-2.0871580386.0462566325-2.4506542581-.4527845584-1.3277895336-1.822859242-3.4151187232-3.0858763435-3.6114574566-5.796594857-.2025001697-2.79595962-1.6792196069-3.7163582365-4.6399038741-3.721805226-2.6323881053-.0048195875-5.2647762107-.0009981394-8.1738869735-.0009981394-.5522472581-2.2247101718-1.209210409-4.3478097508-1.5867980616-6.5194474237-.5202420193-2.991823092-1.5041035988-5.5123532691-4.2287991487-7.3214381871-1.8771557496-1.2463053958-3.4140062416-3.0405608139-4.9694266182-4.7139843258-.4732040168-.5091081399-.8137089507-1.4950132206-.6791557318-2.1530152433.5345616537-2.6140986179,1.0976484758-5.2527514656,2.0207514469-7.745134111.5187016602-1.4004751585.7577996208-2.1824746153-.4920876782-3.3796430334-2.5280145146-2.4213721554-4.7796629361-5.1311495661-7.323993847-7.9177551938.9117784793-2.6826280185,1.9925685806-5.522420218,2.794625-8.4388695248.2271744403-.826117219-.1123463753-2.0437332361-.6203083097-2.7906267036-1.3571561943-1.9955088431-2.2851797569-3.8866693395-.7432660475-6.2147012002.2503226143-.377924102-.1525098123-1.1645150001.0738088729-1.5869846384.489349262-.9134116407,1.0096911194-2.0445032293,1.8392600636-2.4980292628,2.6160003962-1.4302482314,5.4180847276-2.5174787221,8.060656318-3.9041510384.643242545-.3375707512,1.1589205373-1.2551175409,1.3725169975-2.0082565093.5461999224-1.9258387117.9595010858-3.8971925808,1.2986368116-5.8722253067.6644082198-3.869872079,1.7729247847-4.8220115292,5.7979971815-5.1168619133,1.9960486511-.1461846474,3.9945504667-.4564348968,5.9455864023-.89744141.5798881462-.1310414465,1.2761019286-.8799026745,1.4485080457-1.4806400129.6781858761-2.3629382221,1.2564766129-4.7633779679,1.7050634094-7.1808716388.4709790536-2.5381259491,1.5667733935-3.435995133,4.0726238523-2.8802025868,2.2490098435.4988415629,4.4558309631,1.4441651467,6.7127993286,1.5557286154,1.3854103735.0685294006,3.0151102883-.8144247287,4.2061216399-1.7082728368,1.940424573-1.456370966,3.4903681171-3.4385332591,5.4512737609-4.8591423156.8874465107-.6429158583,2.4767833123-.8786193524,3.5534943146-.585651174,2.4503119561.6666715765,4.8158185869,1.6953825792,7.1454976064,2.73450275,1.2606127622.5622661934,1.9937381125.2966470351,3.0590390474-.5596425127,2.6307336456-2.1146866895,10.383047157,1.8523471324,12.5037507935,2.3716077759Z"/></svg>